<svg width="43" height="42" viewBox="0 0 43 42" fill="none" xmlns="http://www.w3.org/2000/svg">
<g opacity="0.1">
<path d="M12.5039 31.29L3.63135 24.255L8.04135 16.065L20.6939 21L12.5039 31.29Z" fill="#787878"/>
<path d="M39.9614 12.4425L39.2789 33.705L25.1564 39.375L16.6514 33.915L29.0939 21L23.6339 9.08251L28.5164 3.20251L39.9614 12.4425Z" fill="#787878"/>
<path d="M39.9613 12.4425L28.7788 25.6725L23.6338 9.08251L28.5163 3.20251L39.9613 12.4425Z" fill="#787878"/>
<path d="M20.9038 33.1275L6.1513 38.4825L8.5138 30.1875L11.6113 20.0025L3.2113 17.1675L8.5138 2.625L20.0638 4.0425L31.4038 17.01L20.9038 33.1275Z" fill="#787878"/>
<path d="M33.0838 9.71252H10.4038V32.3925H33.0838V9.71252Z" fill="#23272A"/>
<path d="M21.0088 28.14H12.5038V29.5575H21.0088V28.14Z" fill="white"/>
<path d="M18.6463 14.385V12.6525H13.9213V14.385H15.2863V20.3175H13.9213V22.05H18.6463V20.3175H17.3338V14.385H18.6463Z" fill="white"/>
<path d="M23.1613 22.2075C22.4263 22.2075 21.7963 22.05 21.3238 21.7875C20.8513 21.525 20.4313 21.1575 20.1163 20.79L21.4288 19.32C21.6913 19.635 21.9538 19.845 22.2163 20.0025C22.4788 20.16 22.7938 20.265 23.1088 20.265C23.4763 20.265 23.7913 20.16 24.0538 19.8975C24.2638 19.635 24.3688 19.2675 24.3688 18.69V12.6525H26.4688V18.795C26.4688 19.3725 26.4163 19.845 26.2588 20.265C26.1013 20.685 25.8913 21 25.5763 21.315C25.3138 21.5775 24.9463 21.84 24.5263 21.945C24.1063 22.1025 23.6863 22.2075 23.1613 22.2075Z" fill="white"/>
</g>
</svg>
