<svg width="43" height="42" viewBox="0 0 43 42" fill="none" xmlns="http://www.w3.org/2000/svg">
<g opacity="0.1">
<path fill-rule="evenodd" clip-rule="evenodd" d="M12.0064 9.71031L11.9979 10.3221L17.7717 8.41635L17.799 7.7984L12.0064 9.71031ZM25.9893 5.09511L25.7857 5.77127L31.8479 3.77036L31.9922 3.1138L25.9893 5.09511ZM31.0674 3L26.1295 4.62982L26.6204 3H31.0674ZM31.6555 4.64574L25.5141 6.67278L25.3559 7.19808L31.5434 5.15583L31.6555 4.64574ZM31.379 5.90425L25.1238 7.96884L23.408 13.6652L29.4473 14.6932L31.379 5.90425ZM17.7141 9.72034L17.7353 9.24025L11.9865 11.1377L11.9798 11.613L17.7141 9.72034ZM11.9701 12.3103L17.683 10.4247L16.9832 26.2579H20.8381L22.123 20.09L27.7769 20.861L26.6204 26.2579H31.3748L30.7323 39.75H11.5863L11.9701 12.3103ZM17.8178 7.37316L12.0123 9.28932L12.1003 3H18.0111L17.8178 7.37316ZM25.9778 31.0122H16.9831V34.3531H25.9778V31.0122Z" fill="#23272A"/>
</g>
</svg>
