<svg width="46" height="42" viewBox="0 0 46 42" fill="none" xmlns="http://www.w3.org/2000/svg">
<g opacity="0.1">
<path d="M36.1256 3.0625H9.87037C6.29933 3.0625 3.5 5.76486 3.5 9.21655V32.5395C3.5 35.9797 6.27085 38.6732 9.80527 38.6732H36.0598C39.5963 38.6732 42.3664 35.9797 42.3664 32.5395V9.21655C42.3658 5.76486 39.6248 3.0625 36.1256 3.0625Z" fill="#23272A"/>
<path d="M37.4493 24.4067H32.3802L31.576 19.3533L28.6057 24.3714H28.0503C27.7133 23.791 27.5797 22.9399 27.5797 22.4198C27.5797 21.5565 27.6421 20.7143 27.6421 19.6191C27.6421 18.1659 27.2149 17.386 26.0749 17.112V17.0686C28.4993 16.7316 29.5985 15.1278 29.5985 12.8696C29.5985 9.6614 27.4644 8.96564 24.6678 8.96564H17.1419L13.9622 24.0249H17.9611L19.1187 18.5456H21.7769C23.1949 18.5456 23.7747 19.24 23.7747 20.5671C23.7747 21.5769 23.6696 22.3771 23.6696 23.1549C23.6696 23.4424 23.7347 24.111 23.9293 24.3708C23.9266 24.3708 26.8195 27.421 26.8195 27.421L24.3328 32.7681C24.3328 32.7681 24.3328 32.7681 29.6521 29.608L33.6158 32.6528L32.8759 27.6075L37.4493 24.4067ZM22.9711 15.7266H19.7927L20.5543 12.0966H23.5116C24.5647 12.0966 25.6593 12.3705 25.6593 13.659C25.6593 15.2824 24.4122 15.7266 22.9711 15.7266ZM29.7063 28.721L26.0017 30.9202L27.6977 27.2786L25.6355 25.1072H29.0262L31.1711 21.4839L31.7523 25.1431H35.1165L32.0839 27.265L32.6257 30.9649L29.7063 28.721Z" fill="white"/>
<path d="M42.388 38.6649C42.2083 38.8473 41.9892 38.9375 41.7322 38.9375C41.4752 38.9375 41.2562 38.8467 41.0785 38.6649C40.8995 38.4845 40.8086 38.2662 40.8086 38.0092C40.8086 37.7542 40.9001 37.5358 41.0798 37.3555C41.2602 37.1758 41.4779 37.0862 41.7322 37.0862C41.9892 37.0862 42.2083 37.1758 42.388 37.3555C42.569 37.5365 42.6599 37.7528 42.6599 38.0092C42.6599 38.2648 42.569 38.4845 42.388 38.6649ZM41.1666 37.447C41.0127 37.603 40.9361 37.7908 40.9361 38.0099C40.9361 38.2309 41.0114 38.4194 41.1666 38.5754C41.3226 38.7321 41.5084 38.81 41.7322 38.81C41.954 38.81 42.1432 38.7321 42.2978 38.5754C42.451 38.4194 42.529 38.2309 42.529 38.0099C42.529 37.7908 42.451 37.603 42.2978 37.447C42.1411 37.2917 41.954 37.2137 41.7322 37.2137C41.5125 37.2131 41.3226 37.2917 41.1666 37.447ZM41.7146 37.4985C41.8421 37.4985 41.9356 37.5108 41.9946 37.5358C42.1004 37.5799 42.1526 37.666 42.1526 37.7935C42.1526 37.8837 42.1221 37.9522 42.053 37.9949C42.0177 38.016 41.9682 38.0336 41.9065 38.0438C41.9865 38.056 42.0435 38.0885 42.0808 38.1428C42.1174 38.1963 42.1371 38.2486 42.1371 38.2987V38.3727C42.1371 38.3971 42.1391 38.4215 42.1398 38.4493C42.1398 38.4764 42.1438 38.4927 42.1459 38.5015L42.1526 38.5144H41.9865C41.9858 38.5124 41.9858 38.5076 41.9845 38.5056C41.9845 38.5015 41.9831 38.4981 41.9831 38.4934L41.979 38.4615V38.3821C41.979 38.2648 41.9472 38.1862 41.8807 38.1502C41.8427 38.1285 41.777 38.117 41.6807 38.117H41.5369V38.5144H41.3586V37.4985H41.7146ZM41.9085 37.6647C41.8644 37.6389 41.7939 37.6267 41.6922 37.6267H41.5376V37.9902H41.7003C41.777 37.9902 41.8346 37.9834 41.8733 37.9665C41.9445 37.9407 41.979 37.8878 41.979 37.8112C41.9784 37.7379 41.9553 37.6898 41.9085 37.6647Z" fill="#231F20"/>
</g>
</svg>
