<svg width="116" height="32" viewBox="0 0 116 32" fill="none" xmlns="http://www.w3.org/2000/svg">
<path fill-rule="evenodd" clip-rule="evenodd" d="M3.27728 0H24.6996C26.506 0 27.9769 1.48462 27.9929 3.30811V32L24.5397 28.9824L22.6053 27.1911L20.559 25.2869L21.4063 28.2401H3.27728C1.47076 28.2401 0 26.7554 0 24.9319V3.30811C0 1.48462 1.47076 0 3.27728 0ZM17.4735 19.6066C17.9531 20.2037 18.5287 20.8976 18.5287 20.8976C21.8761 20.7906 23.2574 18.6991 23.3933 18.4932C23.4009 18.4818 23.4046 18.4771 23.4046 18.4771C23.4046 13.3293 21.1025 9.14978 21.1025 9.14978C18.8164 7.4231 16.6262 7.4715 16.6262 7.4715L16.4024 7.72968C19.1202 8.55267 20.3831 9.763 20.3831 9.763C18.7205 8.85931 17.0898 8.40747 15.5711 8.22998C14.42 8.10083 13.317 8.13312 12.3418 8.26221C12.2458 8.26221 12.166 8.27838 12.07 8.29449C11.5105 8.35907 10.1516 8.55267 8.44104 9.31116C7.84949 9.56934 7.4978 9.763 7.4978 9.763C7.4978 9.763 8.80872 8.48816 11.6863 7.66516L11.5265 7.4715C11.5265 7.4715 9.35223 7.4231 7.05017 9.14978C7.05017 9.14978 4.74805 13.3293 4.74805 18.4771C4.74805 18.4771 6.09094 20.8008 9.62402 20.9138C9.62402 20.9138 9.78064 20.7258 9.99799 20.4598C10.2031 20.2088 10.4623 19.8882 10.6951 19.5905C8.66486 18.9773 7.89746 17.7025 7.89746 17.7025C7.89746 17.7025 8.05731 17.8154 8.34509 17.9768C8.35437 17.9768 8.36365 17.9823 8.3761 17.9901C8.38507 17.9956 8.39569 18.0023 8.40906 18.0091C8.45703 18.0414 8.50494 18.0575 8.55292 18.0898C8.95258 18.3157 9.35223 18.4932 9.71997 18.6384C10.3754 18.9128 11.1588 19.1548 12.07 19.3323C13.269 19.5582 14.6758 19.6389 16.2106 19.3484C16.962 19.2032 17.7293 18.9935 18.5287 18.6545C19.0882 18.4448 19.7117 18.1382 20.3671 17.7025C20.3671 17.7025 19.5678 19.0096 17.4735 19.6066ZM37.3611 8.90668H42.6687C45.5143 8.90668 48.1841 10.3752 48.1682 13.7317V18.5406C48.1682 21.8326 45.4984 23.2688 42.6527 23.2526H37.3451V19.8477H42.7806C44.0116 19.8477 44.5711 19.2184 44.5711 18.2824V13.8124C44.5711 12.8765 43.9796 12.2955 42.7806 12.2955H40.8942V18.1371L37.3611 14.9258V8.90668ZM70.4857 13.6026V18.5406C70.4857 20.2673 73.699 20.7514 74.4664 18.7665L77.5998 20.2189C76.4167 22.5426 74.2745 23.4302 72.484 23.4302C69.7023 23.4302 66.8887 21.8003 66.8887 18.5406V13.6026C66.8887 10.3752 69.7023 8.71307 72.548 8.71307C74.2905 8.71307 76.3848 9.45538 77.5358 12.0051L74.6102 13.1992C73.6511 11.4241 70.4857 11.8275 70.4857 13.6026ZM58.9272 12.941C58.9752 13.6349 59.7106 14.0383 60.8137 14.2804C63.3396 14.7484 65.8655 15.6359 65.7056 19.1377C65.5938 21.9133 62.7001 23.4302 60.0942 23.4302C58.3997 23.4302 56.5931 22.5588 55.2663 20.8321L57.5364 18.6859C58.9592 20.4286 62.0926 20.5093 62.1885 18.9763C62.2205 18.1694 60.9256 17.7015 59.7585 17.5401C57.4724 17.1851 55.3942 15.7166 55.3942 12.9894C55.3942 10.1815 57.92 8.6969 60.5259 8.6969C62.2365 8.6969 63.8991 9.18103 65.3699 10.9884L63.0198 12.8119C61.5331 11.2143 58.9912 11.2789 58.9272 12.941ZM53.6836 23.2365H50.1025V8.90668H53.6836V23.2365ZM105.177 8.90668H110.485C113.33 8.90668 116 10.3752 116 13.7317V18.5406C116 21.8326 113.33 23.2688 110.485 23.2526H105.161V19.8477H110.596C111.827 19.8477 112.387 19.2184 112.387 18.2824V13.8124C112.387 12.8765 111.795 12.2955 110.596 12.2955H108.71V18.1371L105.177 14.9258V8.90668ZM78.575 13.6349C78.575 10.3268 81.5005 8.71307 84.4421 8.71307C87.3837 8.71307 90.3412 10.3429 90.3412 13.6349V18.5245C90.3412 21.8003 87.4156 23.4463 84.4741 23.4463C81.5165 23.4463 78.575 21.8003 78.575 18.5245V13.6349ZM84.4581 20.0898C85.5931 20.0898 86.7442 19.5573 86.7442 18.5245V13.6349C86.7442 12.5214 85.5612 12.0212 84.3942 12.0212C83.2751 12.0212 82.156 12.586 82.156 13.6349V18.5245C82.156 19.5895 83.3071 20.0898 84.4581 20.0898ZM97.9189 8.92285C100.845 8.92285 103.115 10.2784 103.195 13.6349C103.195 16.2814 102.123 17.7822 100.413 18.3308L104.282 23.2526H99.8054L96.5121 18.702H95.8727V23.2526H92.2437V8.92285H97.9189ZM95.8727 15.5714H97.9829C100.237 15.5714 100.237 12.2955 97.9829 12.2955H95.8727V15.5714ZM14.7733 15C14.7733 13.8909 15.485 13 16.3867 13C17.2724 13 18 13.8909 18 15C18 16.1091 17.2882 17 16.3867 17C15.5009 17 14.7733 16.1091 14.7733 15ZM9 15C9 13.8909 9.71179 13 10.6133 13C11.515 13 12.2426 13.8909 12.2267 15C12.2267 16.1091 11.515 17 10.6133 17C9.7276 17 9 16.1091 9 15Z" fill="white"/>
</svg>
