<svg width="116" height="32" viewBox="0 0 116 32" fill="none" xmlns="http://www.w3.org/2000/svg">
<path fill-rule="evenodd" clip-rule="evenodd" d="M3.27728 0H24.6996C26.506 0 27.9769 1.48462 27.9929 3.30811V32L24.5397 28.9824L22.6053 27.1911L20.559 25.2869L21.4063 28.2401H3.27728C1.47076 28.2401 0 26.7554 0 24.9319V3.30811C0 1.48462 1.47076 0 3.27728 0ZM17.4735 19.6066C17.9531 20.2037 18.5287 20.8976 18.5287 20.8976C21.8761 20.7906 23.2574 18.6991 23.3933 18.4932C23.4009 18.4818 23.4046 18.4771 23.4046 18.4771C23.4046 13.3293 21.1025 9.14978 21.1025 9.14978C18.8164 7.4231 16.6262 7.4715 16.6262 7.4715L16.4024 7.72968C19.1202 8.55267 20.3831 9.763 20.3831 9.763C18.7205 8.85931 17.0898 8.40747 15.5711 8.22998C14.42 8.10083 13.317 8.13312 12.3418 8.26221C12.2458 8.26221 12.166 8.27838 12.07 8.29449C11.5105 8.35907 10.1516 8.55267 8.44104 9.31116C7.84949 9.56934 7.4978 9.763 7.4978 9.763C7.4978 9.763 8.80872 8.48816 11.6863 7.66516L11.5265 7.4715C11.5265 7.4715 9.35223 7.4231 7.05017 9.14978C7.05017 9.14978 4.74805 13.3293 4.74805 18.4771C4.74805 18.4771 6.09094 20.8008 9.62402 20.9138C9.62402 20.9138 9.78064 20.7258 9.99799 20.4598C10.2031 20.2088 10.4623 19.8882 10.6951 19.5905C8.66486 18.9773 7.89746 17.7025 7.89746 17.7025C7.89746 17.7025 8.05731 17.8154 8.34509 17.9768C8.35437 17.9768 8.36365 17.9823 8.3761 17.9901C8.38507 17.9956 8.39569 18.0023 8.40906 18.0091C8.45703 18.0414 8.50494 18.0575 8.55292 18.0898C8.95258 18.3157 9.35223 18.4932 9.71997 18.6384C10.3754 18.9128 11.1588 19.1548 12.07 19.3323C13.269 19.5582 14.6758 19.6389 16.2106 19.3484C16.962 19.2032 17.7293 18.9935 18.5287 18.6545C19.0882 18.4448 19.7117 18.1382 20.3671 17.7025C20.3671 17.7025 19.5678 19.0096 17.4735 19.6066ZM37.3611 3.90668H42.6687C45.5143 3.90668 48.1841 5.3752 48.1682 8.7317V13.5406C48.1682 16.8326 45.4984 18.2688 42.6527 18.2526H37.3451V14.8477H42.7806C44.0116 14.8477 44.5711 14.2184 44.5711 13.2824V8.8124C44.5711 7.8765 43.9796 7.2955 42.7806 7.2955H40.8942V13.1371L37.3611 9.9258V3.90668ZM70.4857 8.6026V13.5406C70.4857 15.2673 73.699 15.7514 74.4664 13.7665L77.5998 15.2189C76.4167 17.5426 74.2745 18.4302 72.484 18.4302C69.7023 18.4302 66.8887 16.8003 66.8887 13.5406V8.6026C66.8887 5.3752 69.7023 3.71307 72.548 3.71307C74.2905 3.71307 76.3848 4.45538 77.5358 7.0051L74.6102 8.1992C73.6511 6.4241 70.4857 6.8275 70.4857 8.6026ZM58.9272 7.941C58.9752 8.6349 59.7106 9.0383 60.8137 9.2804C63.3396 9.7484 65.8655 10.6359 65.7056 14.1377C65.5938 16.9133 62.7001 18.4302 60.0942 18.4302C58.3997 18.4302 56.5931 17.5588 55.2663 15.8321L57.5364 13.6859C58.9592 15.4286 62.0926 15.5093 62.1885 13.9763C62.2205 13.1694 60.9256 12.7015 59.7585 12.5401C57.4724 12.1851 55.3942 10.7166 55.3942 7.9894C55.3942 5.1815 57.92 3.6969 60.5259 3.6969C62.2365 3.6969 63.8991 4.18103 65.3699 5.9884L63.0198 7.8119C61.5331 6.2143 58.9912 6.2789 58.9272 7.941ZM53.6836 18.2365H50.1025V3.90668H53.6836V18.2365ZM105.177 3.90668H110.485C113.33 3.90668 116 5.3752 116 8.7317V13.5406C116 16.8326 113.33 18.2688 110.485 18.2526H105.161V14.8477H110.596C111.827 14.8477 112.387 14.2184 112.387 13.2824V8.8124C112.387 7.8765 111.795 7.2955 110.596 7.2955H108.71V13.1371L105.177 9.9258V3.90668ZM78.575 8.6349C78.575 5.3268 81.5005 3.71307 84.4421 3.71307C87.3837 3.71307 90.3412 5.3429 90.3412 8.6349V13.5245C90.3412 16.8003 87.4156 18.4463 84.4741 18.4463C81.5165 18.4463 78.575 16.8003 78.575 13.5245V8.6349ZM84.4581 15.0898C85.5931 15.0898 86.7442 14.5573 86.7442 13.5245V8.6349C86.7442 7.5214 85.5612 7.0212 84.3942 7.0212C83.2751 7.0212 82.156 7.586 82.156 8.6349V13.5245C82.156 14.5895 83.3071 15.0898 84.4581 15.0898ZM97.9189 3.92285C100.845 3.92285 103.115 5.2784 103.195 8.6349C103.195 11.2814 102.123 12.7822 100.413 13.3308L104.282 18.2526H99.8054L96.5121 13.702H95.8727V18.2526H92.2437V3.92285H97.9189ZM95.8727 10.5714H97.9829C100.237 10.5714 100.237 7.2955 97.9829 7.2955H95.8727V10.5714ZM14.7733 15C14.7733 13.8909 15.485 13 16.3867 13C17.2724 13 18 13.8909 18 15C18 16.1091 17.2882 17 16.3867 17C15.5009 17 14.7733 16.1091 14.7733 15ZM9 15C9 13.8909 9.71179 13 10.6133 13C11.515 13 12.2426 13.8909 12.2267 15C12.2267 16.1091 11.515 17 10.6133 17C9.7276 17 9 16.1091 9 15Z" fill="#23272A"/>
<path d="M42.2956 25.65H39.3706L38.8126 27H37.3186L40.1266 20.7H41.5666L44.3836 27H42.8536L42.2956 25.65ZM41.8366 24.543L40.8376 22.131L39.8386 24.543H41.8366ZM49.584 23.715C49.968 23.829 50.262 24.015 50.466 24.273C50.67 24.531 50.772 24.849 50.772 25.227C50.772 25.785 50.559 26.22 50.133 26.532C49.713 26.844 49.11 27 48.324 27H45.219V20.7H48.153C48.885 20.7 49.455 20.841 49.863 21.123C50.271 21.405 50.475 21.807 50.475 22.329C50.475 22.641 50.397 22.917 50.241 23.157C50.085 23.391 49.866 23.577 49.584 23.715ZM46.668 23.31H48.027C48.345 23.31 48.585 23.247 48.747 23.121C48.909 22.989 48.99 22.797 48.99 22.545C48.99 22.299 48.906 22.11 48.738 21.978C48.576 21.846 48.339 21.78 48.027 21.78H46.668V23.31ZM48.27 25.92C48.954 25.92 49.296 25.65 49.296 25.11C49.296 24.588 48.954 24.327 48.27 24.327H46.668V25.92H48.27ZM56.6522 21.888H54.6362V27H53.1962V21.888H51.1892V20.7H56.6522V21.888ZM60.4858 27.108C59.8318 27.108 59.2408 26.967 58.7128 26.685C58.1908 26.403 57.7798 26.016 57.4798 25.524C57.1858 25.026 57.0388 24.468 57.0388 23.85C57.0388 23.232 57.1858 22.677 57.4798 22.185C57.7798 21.687 58.1908 21.297 58.7128 21.015C59.2408 20.733 59.8318 20.592 60.4858 20.592C61.1398 20.592 61.7278 20.733 62.2498 21.015C62.7718 21.297 63.1828 21.687 63.4828 22.185C63.7828 22.677 63.9328 23.232 63.9328 23.85C63.9328 24.468 63.7828 25.026 63.4828 25.524C63.1828 26.016 62.7718 26.403 62.2498 26.685C61.7278 26.967 61.1398 27.108 60.4858 27.108ZM60.4858 25.866C60.8578 25.866 61.1938 25.782 61.4938 25.614C61.7938 25.44 62.0278 25.2 62.1958 24.894C62.3698 24.588 62.4568 24.24 62.4568 23.85C62.4568 23.46 62.3698 23.112 62.1958 22.806C62.0278 22.5 61.7938 22.263 61.4938 22.095C61.1938 21.921 60.8578 21.834 60.4858 21.834C60.1138 21.834 59.7778 21.921 59.4778 22.095C59.1778 22.263 58.9408 22.5 58.7668 22.806C58.5988 23.112 58.5148 23.46 58.5148 23.85C58.5148 24.24 58.5988 24.588 58.7668 24.894C58.9408 25.2 59.1778 25.44 59.4778 25.614C59.7778 25.782 60.1138 25.866 60.4858 25.866ZM67.7829 20.7C68.3409 20.7 68.8239 20.793 69.2319 20.979C69.6459 21.165 69.9639 21.429 70.1859 21.771C70.4079 22.113 70.5189 22.518 70.5189 22.986C70.5189 23.448 70.4079 23.853 70.1859 24.201C69.9639 24.543 69.6459 24.807 69.2319 24.993C68.8239 25.173 68.3409 25.263 67.7829 25.263H66.5139V27H65.0559V20.7H67.7829ZM67.7019 24.075C68.1399 24.075 68.4729 23.982 68.7009 23.796C68.9289 23.604 69.0429 23.334 69.0429 22.986C69.0429 22.632 68.9289 22.362 68.7009 22.176C68.4729 21.984 68.1399 21.888 67.7019 21.888H66.5139V24.075H67.7019ZM71.4808 20.7H72.9298V24.804L75.9358 20.7H77.3038V27H75.8638V22.905L72.8578 27H71.4808V20.7ZM82.4544 23.715C82.8204 23.841 83.1054 24.039 83.3094 24.309C83.5194 24.573 83.6244 24.882 83.6244 25.236C83.6244 25.62 83.4984 25.953 83.2464 26.235C82.9944 26.517 82.6524 26.733 82.2204 26.883C81.7944 27.033 81.3264 27.108 80.8164 27.108C80.3844 27.108 79.9524 27.054 79.5204 26.946C79.0944 26.838 78.6894 26.673 78.3054 26.451L78.7554 25.407C79.0314 25.575 79.3344 25.704 79.6644 25.794C80.0004 25.878 80.3274 25.92 80.6454 25.92C81.0774 25.92 81.4344 25.842 81.7164 25.686C82.0044 25.53 82.1484 25.311 82.1484 25.029C82.1484 24.795 82.0494 24.618 81.8514 24.498C81.6594 24.378 81.3954 24.318 81.0594 24.318H79.5204V23.22H80.9514C81.2454 23.22 81.4734 23.16 81.6354 23.04C81.8034 22.92 81.8874 22.755 81.8874 22.545C81.8874 22.299 81.7674 22.107 81.5274 21.969C81.2934 21.831 80.9904 21.762 80.6184 21.762C80.3424 21.762 80.0574 21.801 79.7634 21.879C79.4694 21.951 79.1904 22.062 78.9264 22.212L78.4854 21.078C79.1514 20.736 79.8714 20.565 80.6454 20.565C81.1374 20.565 81.5904 20.637 82.0044 20.781C82.4184 20.925 82.7484 21.135 82.9944 21.411C83.2404 21.687 83.3634 22.008 83.3634 22.374C83.3634 22.674 83.2824 22.941 83.1204 23.175C82.9584 23.409 82.7364 23.589 82.4544 23.715ZM89.0446 25.65H86.1196L85.5616 27H84.0676L86.8756 20.7H88.3156L91.1326 27H89.6026L89.0446 25.65ZM88.5856 24.543L87.5866 22.131L86.5876 24.543H88.5856ZM98.5741 25.812V28.332H97.2331V27H91.9681V20.7H93.4171V25.812H96.2251V20.7H97.6741V25.812H98.5741ZM99.5354 20.7H100.984V24.804L103.99 20.7H105.358V27H103.918V22.905L100.912 27H99.5354V20.7ZM111.958 20.7V27H110.518V25.326H109.186L108.07 27H106.531L107.845 25.101C107.419 24.927 107.092 24.666 106.864 24.318C106.636 23.964 106.522 23.541 106.522 23.049C106.522 22.563 106.633 22.146 106.855 21.798C107.077 21.444 107.392 21.174 107.8 20.988C108.208 20.796 108.688 20.7 109.24 20.7H111.958ZM109.276 21.888C108.862 21.888 108.544 21.984 108.322 22.176C108.106 22.368 107.998 22.653 107.998 23.031C107.998 23.397 108.103 23.679 108.313 23.877C108.523 24.075 108.832 24.174 109.24 24.174H110.518V21.888H109.276Z" fill="#23272A"/>
</svg>
