<svg width="116" height="32" viewBox="0 0 116 32" fill="none" xmlns="http://www.w3.org/2000/svg">
<g clip-path="url(#clip0)">
<path fill-rule="evenodd" clip-rule="evenodd" d="M3.27813 0H24.7005C26.5069 0 27.9778 1.48462 27.9938 3.30811V32L24.5406 28.9824L22.6062 27.1911L20.5599 25.2869L21.4072 28.2401H3.27813C1.47161 28.2401 0.000854492 26.7554 0.000854492 24.9319V3.30811C0.000854492 1.48462 1.47161 0 3.27813 0ZM17.4744 21.6066C17.954 22.2037 18.5296 22.8976 18.5296 22.8976C21.877 22.7906 23.2583 20.6991 23.3942 20.4932C23.4018 20.4818 23.4055 20.4771 23.4055 20.4771C23.4055 15.3293 21.1034 11.1498 21.1034 11.1498C18.8173 9.4231 16.6271 9.4715 16.6271 9.4715L16.4033 9.72968C19.1211 10.5527 20.384 11.763 20.384 11.763C18.7214 10.8593 17.0907 10.4075 15.572 10.23C14.4209 10.1008 13.3179 10.1331 12.3427 10.2622C12.2467 10.2622 12.1669 10.2784 12.0709 10.2945C11.5114 10.3591 10.1525 10.5527 8.44189 11.3112C7.85034 11.5693 7.49865 11.763 7.49865 11.763C7.49865 11.763 8.80957 10.4882 11.6872 9.66516L11.5274 9.4715C11.5274 9.4715 9.35308 9.4231 7.05102 11.1498C7.05102 11.1498 4.7489 15.3293 4.7489 20.4771C4.7489 20.4771 6.09179 22.8008 9.62487 22.9138C9.62487 22.9138 9.78149 22.7258 9.99884 22.4598C10.204 22.2088 10.4632 21.8882 10.696 21.5905C8.66571 20.9773 7.89831 19.7025 7.89831 19.7025C7.89831 19.7025 8.05816 19.8154 8.34594 19.9768C8.35522 19.9768 8.3645 19.9823 8.37695 19.9901C8.38592 19.9956 8.39654 20.0023 8.40991 20.0091C8.45788 20.0414 8.50579 20.0575 8.55377 20.0898C8.95343 20.3157 9.35308 20.4932 9.72082 20.6384C10.3763 20.9128 11.1597 21.1548 12.0709 21.3323C13.2699 21.5582 14.6767 21.6389 16.2115 21.3484C16.9629 21.2032 17.7302 20.9935 18.5296 20.6545C19.0891 20.4448 19.7126 20.1382 20.368 19.7025C20.368 19.7025 19.5687 21.0096 17.4744 21.6066ZM14.7742 17C14.7742 15.8909 15.4859 15 16.3876 15C17.2733 15 18.0009 15.8909 18.0009 17C18.0009 18.1091 17.2891 19 16.3876 19C15.5018 19 14.7742 18.1091 14.7742 17ZM9.00085 17C9.00085 15.8909 9.71264 15 10.6142 15C11.5159 15 12.2435 15.8909 12.2276 17C12.2276 18.1091 11.5159 19 10.6142 19C9.72845 19 9.00085 18.1091 9.00085 17Z" fill="url(#paint0_linear)"/>
<path d="M37.4679 0.170675H33.0143V5.06779L35.9789 7.68048V2.92779H37.5618C38.5679 2.92779 39.0643 3.40049 39.0643 4.16193V7.79869C39.0643 8.56021 38.5948 9.07221 37.5618 9.07221H33.0009V11.8424H37.4545C39.8424 11.8556 42.0826 10.6871 42.0826 8.00876V4.09627C42.096 1.36545 39.8557 0.170675 37.4679 0.170675Z" fill="#23272A"/>
<path d="M60.8094 8.00876V3.99124C60.8094 2.54703 63.4655 2.21883 64.2703 3.66304L66.7252 2.69153C65.7594 0.617093 64.0021 0.0131554 62.5399 0.0131554C60.1521 0.0131554 57.7911 1.36545 57.7911 3.99124V8.00876C57.7911 10.6608 60.1521 11.9869 62.4862 11.9869C63.9886 11.9869 65.7862 11.2648 66.7789 9.37421L64.1497 8.19255C63.5057 9.80745 60.8094 9.41359 60.8094 8.00876Z" fill="#23272A"/>
<path d="M52.6936 4.54269C51.7679 4.34572 51.1509 4.01752 51.1106 3.45297C51.1643 2.1007 53.2972 2.04814 54.5447 3.34793L56.5167 1.86435C55.2825 0.393885 53.8874 0 52.4521 0C50.2654 0 48.146 1.20786 48.146 3.49235C48.146 5.71117 49.8898 6.90594 51.8081 7.19476C52.7875 7.32607 53.874 7.70675 53.8472 8.36324C53.7667 9.61048 51.1374 9.54482 49.9435 8.12697L48.0387 9.87311C49.152 11.2779 50.6679 11.9869 52.0898 11.9869C54.2765 11.9869 56.7046 10.7528 56.7984 8.49455C56.9326 5.64552 54.8131 4.92345 52.6936 4.54269Z" fill="#23272A"/>
<path d="M43.7057 11.8293H46.7106V0.170675H43.7057V11.8293Z" fill="#23272A"/>
<path d="M94.3732 0.170675H89.9192V5.06779L92.8838 7.68048V2.92779H94.4663C95.4724 2.92779 95.9692 3.40049 95.9692 4.16193V7.79869C95.9692 8.56021 95.4993 9.07221 94.4663 9.07221H89.9058V11.8424H94.3732C96.7604 11.8556 99.0009 10.6871 99.0009 8.00876V4.09627C99.0009 1.36545 96.7604 0.170675 94.3732 0.170675Z" fill="#23272A"/>
<path fill-rule="evenodd" clip-rule="evenodd" d="M67.5972 4.01752C67.5972 1.32607 70.052 0.0131554 72.5204 0.0131554C74.9887 0.0131554 77.4703 1.33917 77.4703 4.01752V7.99566C77.4703 10.6608 75.0154 12 72.5472 12C70.0655 12 67.5972 10.6608 67.5972 7.99566V4.01752ZM74.4521 7.99566C74.4521 8.83594 73.4862 9.26918 72.5338 9.26918C71.568 9.26918 70.6021 8.86214 70.6021 7.99566V4.01752C70.6021 3.16414 71.5411 2.70463 72.4802 2.70463C73.4594 2.70463 74.4521 3.11158 74.4521 4.01752V7.99566Z" fill="#23272A"/>
<path fill-rule="evenodd" clip-rule="evenodd" d="M83.8288 0.183831C86.2842 0.183831 88.1889 1.2867 88.2561 4.01752C88.2561 6.17069 87.3565 7.39173 85.9217 7.83807L89.1682 11.8424H85.4118L82.6484 8.14007H82.1119V11.8424H79.0667V0.183831H83.8288ZM83.8826 5.59304H82.1119V2.92779H83.8826C85.774 2.92779 85.774 5.59304 83.8826 5.59304Z" fill="#23272A"/>
<path d="M37.9303 18.8H35.3303L34.8343 20H33.5063L36.0023 14.4H37.2823L39.7863 20H38.4263L37.9303 18.8ZM37.5223 17.816L36.6343 15.672L35.7463 17.816H37.5223ZM44.4089 17.08C44.7502 17.1813 45.0116 17.3467 45.1929 17.576C45.3742 17.8053 45.4649 18.088 45.4649 18.424C45.4649 18.92 45.2756 19.3067 44.8969 19.584C44.5236 19.8613 43.9876 20 43.2889 20H40.5289V14.4H43.1369C43.7876 14.4 44.2942 14.5253 44.6569 14.776C45.0196 15.0267 45.2009 15.384 45.2009 15.848C45.2009 16.1253 45.1316 16.3707 44.9929 16.584C44.8542 16.792 44.6596 16.9573 44.4089 17.08ZM41.8169 16.72H43.0249C43.3076 16.72 43.5209 16.664 43.6649 16.552C43.8089 16.4347 43.8809 16.264 43.8809 16.04C43.8809 15.8213 43.8062 15.6533 43.6569 15.536C43.5129 15.4187 43.3022 15.36 43.0249 15.36H41.8169V16.72ZM43.2409 19.04C43.8489 19.04 44.1529 18.8 44.1529 18.32C44.1529 17.856 43.8489 17.624 43.2409 17.624H41.8169V19.04H43.2409ZM50.6917 15.456H48.8997V20H47.6197V15.456H45.8357V14.4H50.6917V15.456ZM54.0993 20.096C53.518 20.096 52.9927 19.9707 52.5233 19.72C52.0593 19.4693 51.694 19.1253 51.4273 18.688C51.166 18.2453 51.0353 17.7493 51.0353 17.2C51.0353 16.6507 51.166 16.1573 51.4273 15.72C51.694 15.2773 52.0593 14.9307 52.5233 14.68C52.9927 14.4293 53.518 14.304 54.0993 14.304C54.6807 14.304 55.2033 14.4293 55.6673 14.68C56.1313 14.9307 56.4967 15.2773 56.7633 15.72C57.03 16.1573 57.1633 16.6507 57.1633 17.2C57.1633 17.7493 57.03 18.2453 56.7633 18.688C56.4967 19.1253 56.1313 19.4693 55.6673 19.72C55.2033 19.9707 54.6807 20.096 54.0993 20.096ZM54.0993 18.992C54.43 18.992 54.7287 18.9173 54.9953 18.768C55.262 18.6133 55.47 18.4 55.6193 18.128C55.774 17.856 55.8513 17.5467 55.8513 17.2C55.8513 16.8533 55.774 16.544 55.6193 16.272C55.47 16 55.262 15.7893 54.9953 15.64C54.7287 15.4853 54.43 15.408 54.0993 15.408C53.7687 15.408 53.47 15.4853 53.2033 15.64C52.9367 15.7893 52.726 16 52.5713 16.272C52.422 16.544 52.3473 16.8533 52.3473 17.2C52.3473 17.5467 52.422 17.856 52.5713 18.128C52.726 18.4 52.9367 18.6133 53.2033 18.768C53.47 18.9173 53.7687 18.992 54.0993 18.992ZM60.5857 14.4C61.0817 14.4 61.511 14.4827 61.8737 14.648C62.2417 14.8133 62.5244 15.048 62.7217 15.352C62.919 15.656 63.0177 16.016 63.0177 16.432C63.0177 16.8427 62.919 17.2027 62.7217 17.512C62.5244 17.816 62.2417 18.0507 61.8737 18.216C61.511 18.376 61.0817 18.456 60.5857 18.456H59.4577V20H58.1617V14.4H60.5857ZM60.5137 17.4C60.903 17.4 61.199 17.3173 61.4017 17.152C61.6044 16.9813 61.7057 16.7413 61.7057 16.432C61.7057 16.1173 61.6044 15.8773 61.4017 15.712C61.199 15.5413 60.903 15.456 60.5137 15.456H59.4577V17.4H60.5137ZM63.8726 14.4H65.1606V18.048L67.8326 14.4H69.0486V20H67.7686V16.36L65.0966 20H63.8726V14.4ZM73.6269 17.08C73.9523 17.192 74.2056 17.368 74.3869 17.608C74.5736 17.8427 74.6669 18.1173 74.6669 18.432C74.6669 18.7733 74.5549 19.0693 74.3309 19.32C74.1069 19.5707 73.8029 19.7627 73.4189 19.896C73.0403 20.0293 72.6243 20.096 72.1709 20.096C71.7869 20.096 71.4029 20.048 71.0189 19.952C70.6403 19.856 70.2803 19.7093 69.9389 19.512L70.3389 18.584C70.5843 18.7333 70.8536 18.848 71.1469 18.928C71.4456 19.0027 71.7363 19.04 72.0189 19.04C72.4029 19.04 72.7203 18.9707 72.9709 18.832C73.2269 18.6933 73.3549 18.4987 73.3549 18.248C73.3549 18.04 73.2669 17.8827 73.0909 17.776C72.9203 17.6693 72.6856 17.616 72.3869 17.616H71.0189V16.64H72.2909C72.5523 16.64 72.7549 16.5867 72.8989 16.48C73.0483 16.3733 73.1229 16.2267 73.1229 16.04C73.1229 15.8213 73.0163 15.6507 72.8029 15.528C72.5949 15.4053 72.3256 15.344 71.9949 15.344C71.7496 15.344 71.4963 15.3787 71.2349 15.448C70.9736 15.512 70.7256 15.6107 70.4909 15.744L70.0989 14.736C70.6909 14.432 71.3309 14.28 72.0189 14.28C72.4563 14.28 72.8589 14.344 73.2269 14.472C73.5949 14.6 73.8883 14.7867 74.1069 15.032C74.3256 15.2773 74.4349 15.5627 74.4349 15.888C74.4349 16.1547 74.3629 16.392 74.2189 16.6C74.0749 16.808 73.8776 16.968 73.6269 17.08ZM79.4849 18.8H76.8849L76.3889 20H75.0609L77.5569 14.4H78.8369L81.3409 20H79.9809L79.4849 18.8ZM79.0769 17.816L78.1889 15.672L77.3009 17.816H79.0769ZM87.9556 18.944V21.184H86.7636V20H82.0836V14.4H83.3716V18.944H85.8676V14.4H87.1556V18.944H87.9556ZM88.8101 14.4H90.0981V18.048L92.7701 14.4H93.9861V20H92.7061V16.36L90.0341 20H88.8101V14.4ZM99.8524 14.4V20H98.5724V18.512H97.3884L96.3964 20H95.0284L96.1964 18.312C95.8178 18.1573 95.5271 17.9253 95.3244 17.616C95.1218 17.3013 95.0204 16.9253 95.0204 16.488C95.0204 16.056 95.1191 15.6853 95.3164 15.376C95.5138 15.0613 95.7938 14.8213 96.1564 14.656C96.5191 14.4853 96.9458 14.4 97.4364 14.4H99.8524ZM97.4684 15.456C97.1004 15.456 96.8178 15.5413 96.6204 15.712C96.4284 15.8827 96.3324 16.136 96.3324 16.472C96.3324 16.7973 96.4258 17.048 96.6124 17.224C96.7991 17.4 97.0738 17.488 97.4364 17.488H98.5724V15.456H97.4684Z" fill="#23272A"/>
<path d="M36.9719 29.165C36.2679 29.165 35.6335 29.022 35.0689 28.736C34.5115 28.45 34.0715 28.0503 33.7489 27.537C33.4262 27.0237 33.2649 26.4443 33.2649 25.799C33.2649 25.1537 33.4262 24.5743 33.7489 24.061C34.0715 23.5477 34.5115 23.148 35.0689 22.862C35.6335 22.576 36.2679 22.433 36.9719 22.433C37.6465 22.433 38.2295 22.5393 38.7209 22.752C39.2122 22.9647 39.6339 23.3093 39.9859 23.786L38.3689 25.161C37.9875 24.6623 37.5549 24.413 37.0709 24.413C36.6969 24.413 36.3925 24.5377 36.1579 24.787C35.9305 25.029 35.8169 25.3663 35.8169 25.799C35.8169 26.2317 35.9305 26.5727 36.1579 26.822C36.3925 27.064 36.6969 27.185 37.0709 27.185C37.5549 27.185 37.9875 26.9357 38.3689 26.437L39.9859 27.812C39.6339 28.2887 39.2122 28.6333 38.7209 28.846C38.2295 29.0587 37.6465 29.165 36.9719 29.165ZM45.0978 28.01H42.6118L42.2268 29H39.8068L42.6228 22.598H45.1088L47.9248 29H45.4718L45.0978 28.01ZM44.4488 26.316L43.8658 24.809L43.2718 26.316H44.4488ZM48.3114 22.598H50.8414V27.13H53.6244V29H48.3114V22.598ZM54.284 22.598H56.8141V29H54.284V22.598ZM60.5094 24.413V25.271H63.0724V27.086H60.5094V29H57.9794V22.598H63.4464V24.413H60.5094ZM67.5771 29.165C66.8658 29.165 66.2241 29.022 65.6521 28.736C65.0875 28.4427 64.6438 28.0393 64.3211 27.526C63.9985 27.0127 63.8371 26.437 63.8371 25.799C63.8371 25.161 63.9985 24.5853 64.3211 24.072C64.6438 23.5587 65.0875 23.159 65.6521 22.873C66.2241 22.5797 66.8658 22.433 67.5771 22.433C68.2885 22.433 68.9265 22.5797 69.4911 22.873C70.0558 23.159 70.4995 23.5587 70.8221 24.072C71.1448 24.5853 71.3061 25.161 71.3061 25.799C71.3061 26.437 71.1448 27.0127 70.8221 27.526C70.4995 28.0393 70.0558 28.4427 69.4911 28.736C68.9265 29.022 68.2885 29.165 67.5771 29.165ZM67.5771 27.185C67.9218 27.185 68.2041 27.0567 68.4241 26.8C68.6441 26.5433 68.7541 26.2097 68.7541 25.799C68.7541 25.3883 68.6441 25.0547 68.4241 24.798C68.2041 24.5413 67.9218 24.413 67.5771 24.413C67.2325 24.413 66.9465 24.545 66.7191 24.809C66.4991 25.0657 66.3891 25.3957 66.3891 25.799C66.3891 26.2023 66.4991 26.536 66.7191 26.8C66.9465 27.0567 67.2325 27.185 67.5771 27.185ZM74.8873 27.482H74.6783V29H72.1483V22.598H75.4373C76.046 22.598 76.5776 22.7007 77.0323 22.906C77.4943 23.104 77.85 23.39 78.0993 23.764C78.3486 24.1307 78.4733 24.5633 78.4733 25.062C78.4733 25.5167 78.3706 25.9163 78.1653 26.261C77.96 26.5983 77.6666 26.8697 77.2853 27.075L78.6163 29H75.9213L74.8873 27.482ZM75.9433 25.062C75.9433 24.8787 75.8846 24.732 75.7673 24.622C75.65 24.512 75.474 24.457 75.2393 24.457H74.6783V25.667H75.2393C75.474 25.667 75.65 25.612 75.7673 25.502C75.8846 25.392 75.9433 25.2453 75.9433 25.062ZM86.0648 22.598V29H83.9858L81.8848 26.569V29H79.4208V22.598H81.4998L83.6008 25.051V22.598H86.0648ZM87.2303 22.598H89.7603V29H87.2303V22.598ZM95.4357 28.01H92.9497L92.5647 29H90.1447L92.9607 22.598H95.4467L98.2627 29H95.8097L95.4357 28.01ZM94.7867 26.316L94.2037 24.809L93.6097 26.316H94.7867ZM102.294 27.068H102.028V29H98.8083V20.852H102.994C103.769 20.852 104.446 20.9827 105.024 21.244C105.612 21.496 106.065 21.86 106.382 22.336C106.7 22.8027 106.858 23.3533 106.858 23.988C106.858 24.5667 106.728 25.0753 106.466 25.514C106.205 25.9433 105.832 26.2887 105.346 26.55L107.04 29H103.61L102.294 27.068ZM103.638 23.988C103.638 23.7547 103.564 23.568 103.414 23.428C103.265 23.288 103.041 23.218 102.742 23.218H102.028V24.758H102.742C103.041 24.758 103.265 24.688 103.414 24.548C103.564 24.408 103.638 24.2213 103.638 23.988ZM112.25 20.852C113.025 20.852 113.701 20.9827 114.28 21.244C114.868 21.496 115.321 21.86 115.638 22.336C115.955 22.8027 116.114 23.3533 116.114 23.988C116.114 24.6227 115.955 25.178 115.638 25.654C115.321 26.1207 114.868 26.48 114.28 26.732C113.701 26.984 113.025 27.11 112.25 27.11H111.284V29H108.064V20.852H112.25ZM111.998 24.758C112.297 24.758 112.521 24.688 112.67 24.548C112.819 24.408 112.894 24.2213 112.894 23.988C112.894 23.7547 112.819 23.568 112.67 23.428C112.521 23.288 112.297 23.218 111.998 23.218H111.284V24.758H111.998Z" fill="#23272A"/>
</g>
<path d="M4.25722 3.05217V4.21739H6.32608V5.26957H4.25722V7H3V2H6.59662V3.05217H4.25722Z" fill="white"/>
<path d="M7.40594 2H8.66317V7H7.40594V2Z" fill="white"/>
<path d="M14.4523 2L12.4631 7H11.2218L9.23247 2H10.5693L11.8742 5.4L13.211 2H14.4523Z" fill="white"/>
<path d="M18.7208 5.94783V7H15.0367V2H18.6333V3.05217H16.278V3.96522H18.3628V4.96522H16.278V5.94783H18.7208Z" fill="white"/>
<path d="M23.8223 7L23.8144 4.26957L22.589 6.46957H22.024L20.8066 4.35652V7H19.6369V2H20.6872L22.3264 4.90435L23.9258 2H24.9841L25 7H23.8223Z" fill="white"/>
<defs>
<linearGradient id="paint0_linear" x1="-17.5" y1="-6.5" x2="55" y2="38" gradientUnits="userSpaceOnUse">
<stop stop-color="#0D59B4"/>
<stop offset="1" stop-color="#23272A"/>
</linearGradient>
<clipPath id="clip0">
<rect width="116" height="32" fill="white" transform="translate(0.000854492)"/>
</clipPath>
</defs>
</svg>
