<svg width="25" height="38" viewBox="0 0 25 38" fill="none" xmlns="http://www.w3.org/2000/svg">
<g filter="url(#filter0_i)">
<path fill-rule="evenodd" clip-rule="evenodd" d="M12.4899 2.79066L11.6214 0L10.753 2.79066H7.9428L10.2163 4.51537L9.34793 7.30603L11.6214 5.58131L13.895 7.30603L13.0266 4.51537L15.3001 2.79066H12.4899ZM8.86672 8.36986L7.17333 2.92808L5.47992 8.36986H0L4.43333 11.7331L2.73996 17.1748L7.17333 13.8116L11.6067 17.1748L9.9133 11.7331L14.3466 8.36986H8.86672ZM18.8853 10.7147C18.9002 10.7003 18.9157 10.6854 18.9315 10.67C19.2381 10.3727 19.7317 9.89413 20.5999 9.94687C21.4227 9.99685 21.6744 10.3595 21.9019 10.6872C21.9595 10.7703 22.0156 10.8511 22.0791 10.9241L21.9782 11.5174L21.8438 12.6156L21.5304 13.0112L21.474 13.6114L22.3036 14.3025C22.4809 14.3727 22.6626 14.4494 22.8384 14.5236C23.2735 14.7072 23.6729 14.8758 23.8836 14.8957C24.0649 14.9128 24.228 15.1472 24.2199 15.5588C24.2199 16.3684 24.2198 16.885 24.4215 17.7226L24.7577 19.8863C24.7811 20.0948 24.8029 20.2809 24.8232 20.4534L24.8238 20.459C24.9583 21.6037 25.0222 22.1486 24.9931 24.6327L24.7241 24.8072C24.7241 25.6448 24.2763 26.4824 23.413 26.4824C23.4108 26.4786 23.4086 26.475 23.4063 26.4714L23.4062 26.4711C23.3739 26.4194 23.347 26.3764 23.6483 26.0636L23.6555 26.0443C23.718 25.8764 23.8784 25.4458 23.7492 25.3653C23.6426 25.2989 23.5218 25.594 23.4541 25.7596C23.4364 25.8029 23.4223 25.8373 23.413 25.8542C23.3962 25.882 23.3735 25.8863 23.3439 25.892C23.2744 25.9052 23.167 25.9256 23.0096 26.273C23.0107 26.3062 22.9527 26.3416 22.8939 26.3775C22.8363 26.4126 22.7782 26.4481 22.7743 26.4824C22.7592 26.6144 22.7719 26.7526 22.786 26.9046C22.8265 27.3426 22.8776 27.8958 22.3036 28.7508C22.2011 29.0696 22.2103 29.3326 22.219 29.582C22.2276 29.8282 22.2357 30.0611 22.1355 30.3213C22.1355 30.3213 22.2632 31.124 22.2027 31.4381C22.1422 31.7522 22.1355 32.7643 22.1355 32.7643C22.0787 32.8905 22.0044 33.0268 21.9242 33.1738C21.672 33.6364 21.3623 34.2046 21.3623 34.8931C21.3623 35.1904 21.2627 35.4256 21.1848 35.6099C21.1346 35.7285 21.0933 35.826 21.0933 35.9052C21.0933 35.9052 21.2278 36.7426 21.6312 36.7775C22.0346 36.8124 22.27 37.6806 21.6312 37.7549C20.9925 37.8292 20.7571 37.7898 20.7571 37.7898C20.7571 37.7898 20.4101 37.9388 20.3201 37.9643C19.9503 38.069 19.6922 37.9364 19.4905 37.6572C19.6028 36.7946 19.6408 36.5718 19.7225 36.0931L19.7486 35.9402L19.6477 35.8006C19.6711 35.2341 19.7954 33.9762 19.8779 33.1408C19.914 32.7754 19.9421 32.4908 19.9503 32.3804C19.7748 31.8338 19.9093 31.2178 20.0208 30.7071C20.0802 30.4352 20.1331 30.1931 20.1292 30.0072L20.062 29.6931C20.0503 29.7456 20.0073 29.7886 19.9596 29.8363C19.8698 29.9261 19.7632 30.0328 19.8158 30.2515C19.8618 30.4423 19.8409 30.9666 19.8226 31.4235V31.4241C19.8088 31.7693 19.7966 32.0759 19.8158 32.171L19.8831 32.5898L19.6477 35.2073V35.8006C19.5469 36.2194 19.5805 36.4288 19.5805 36.4288C19.5805 36.4288 19.6141 37.1267 19.3788 37.1965C19.1435 37.2663 18.381 37.1267 18.3474 36.8824C18.3138 36.6381 18.2802 36.3589 18.4039 35.982C18.5275 35.6051 18.6728 35.1374 18.6392 34.9629L18.3366 34.5092C18.2942 34.2598 18.2815 34.0658 18.2685 33.8678C18.2507 33.5948 18.2323 33.3139 18.1349 32.869C18.0763 32.7594 18.075 32.5917 18.0733 32.3624C18.0715 32.1228 18.0691 31.816 18.0004 31.4381C18.0162 31.1442 18.034 30.6907 18.034 30.5305C18.034 30.3235 17.9668 30.0768 17.9668 30.0768C17.9668 30.0768 17.9332 29.902 17.597 29.7976C17.461 29.7553 17.3426 29.6961 17.2361 29.6428C17.0795 29.5644 16.9483 29.4988 16.8238 29.5186L16.8102 29.5208C16.6161 29.5512 15.4321 29.7369 14.6386 30.2515C14.1977 30.5374 14.1884 30.813 14.183 30.9757C14.1785 31.1107 14.1765 31.168 13.9326 31.0889C13.5575 30.9672 13.8624 30.1031 14.1362 29.3268C14.3127 28.8266 14.4764 28.3627 14.4369 28.1575C14.4369 27.8981 14.5013 27.4883 14.5594 27.1182L14.5595 27.1178C14.6124 26.781 14.6601 26.4772 14.6494 26.3497C14.7085 26.1833 14.7774 25.9412 14.8505 25.6848C14.9714 25.2602 15.1036 24.7961 15.2209 24.5698C15.2989 24.4196 15.3526 24.1804 15.4103 23.9237C15.4919 23.5602 15.5815 23.1613 15.7588 22.9296V22.0571C15.8261 21.964 16.0009 21.7639 16.1623 21.7081C16.2536 21.6765 16.2277 21.595 16.1752 21.4298C16.1568 21.372 16.1351 21.3039 16.1141 21.2241C16.078 21.0872 16.1426 20.9573 16.189 20.8638C16.209 20.8236 16.2256 20.7902 16.2295 20.7658C16.2385 20.7095 16.2621 20.6507 16.2892 20.5833C16.3063 20.5409 16.3284 20.5023 16.3509 20.4629C16.4258 20.3325 16.5067 20.1916 16.4312 19.8584L16.3639 19.4396C16.3415 19.5094 16.2564 19.6699 16.095 19.7537C16.0083 19.7987 15.9713 19.9743 15.9385 20.1294C15.9338 20.1522 15.9291 20.1745 15.9243 20.1959C15.9136 20.244 15.9079 20.2878 15.9027 20.3283C15.8891 20.4326 15.8784 20.5148 15.7924 20.5913C15.7268 20.6497 15.7341 20.6912 15.7457 20.7572C15.7547 20.8085 15.7663 20.8747 15.748 20.9752C15.7056 21.2083 15.3623 21.683 15.2437 21.771L15.1201 22.79L14.952 22.8598C15.0109 22.9384 15.0003 23.0957 14.9914 23.2283L14.9913 23.2288C14.9884 23.2726 14.9856 23.3137 14.9856 23.3484C14.9856 23.39 14.9913 23.4495 14.9978 23.5165C15.0184 23.7302 14.952 24.3532 14.7058 24.3532C14.5487 24.3532 14.5537 24.1744 14.5587 23.9958C14.5615 23.8946 14.5644 23.7935 14.5377 23.725C14.523 23.6872 14.5133 23.6222 14.5048 23.5647C14.497 23.5127 14.4902 23.4668 14.4813 23.4531C14.4141 23.3484 14.2352 23.2714 14.2688 23.725C14.3584 23.8646 14.4679 24.2558 14.4141 24.3954C14.397 24.4396 14.3882 24.4686 14.3826 24.4869C14.3769 24.5054 14.3747 24.5129 14.3707 24.5141C14.3676 24.515 14.3635 24.5121 14.356 24.5074C14.4028 24.5465 14.4141 24.631 14.4141 24.7094C14.4141 24.8141 14.3805 24.9537 14.1451 24.8839C13.9098 24.8141 13.4728 24.2907 13.4055 23.9068C13.3518 23.5996 13.3831 23.0343 13.4055 22.8598C13.3791 22.8598 13.3644 22.8653 13.3533 22.8695C13.3317 22.8776 13.3245 22.8804 13.2711 22.8249C13.2225 22.7745 13.3452 22.232 13.4818 21.861C13.5368 21.7118 13.6033 21.5662 13.6643 21.4328L13.6645 21.4324C13.7669 21.2083 13.8535 21.0189 13.8426 20.9054C13.809 20.5564 13.9098 19.998 14.1115 19.7537C14.2315 19.6084 14.2766 19.3679 14.3208 19.1318C14.3345 19.0589 14.3481 18.9862 14.3637 18.9171C14.3747 18.8688 14.4075 18.8004 14.436 18.741C14.4567 18.698 14.4751 18.6596 14.4813 18.6369C14.4865 18.6183 14.479 18.5826 14.4705 18.5424C14.46 18.4918 14.4479 18.4341 14.4575 18.3945C14.5411 18.0524 14.9588 17.513 15.1537 17.3107C15.2367 17.2246 15.2194 17.1949 15.1975 17.1573C15.1574 17.0883 15.1019 16.9929 15.6244 16.4731C15.5347 16.2986 15.4899 16.0404 16.0278 15.2866C16.039 15.0423 16.0816 14.449 16.1623 14.449C16.2311 14.449 16.7023 14.3644 17.1869 14.2774C17.4121 14.237 17.6403 14.196 17.8323 14.1628C18.1772 14.1032 18.613 13.9005 18.8335 13.798L18.8745 13.7789C19.2602 13.6005 19.3676 13.4344 19.3896 13.2973C19.3688 13.2302 19.3609 13.1612 19.3528 13.0913C19.335 12.9358 19.3167 12.7765 19.1544 12.6272L19.0871 12.006C18.9974 11.9944 18.7912 11.8734 18.6836 11.7617C18.594 11.6686 18.6239 11.3816 18.6537 11.1644C18.6635 11.0935 18.7403 10.9651 18.8048 10.8573L18.8051 10.8569C18.8393 10.7998 18.8699 10.7485 18.8853 10.7147ZM20.5012 14.6514C20.6357 14.7561 20.7571 14.9513 20.7571 15.0351C20.7571 15.1188 20.6222 15.3026 20.5326 15.384C20.6222 15.6051 20.7571 15.9913 20.7571 16.4659C21.0709 15.9657 21.7025 14.9515 21.4067 13.7789C21.3171 14.0465 20.9252 14.477 20.5012 14.6514ZM23.0768 20.27C23.0802 20.2855 23.0847 20.3051 23.0901 20.3282C23.1365 20.5311 23.2449 21.004 23.2449 21.3173C23.2449 21.4507 23.2732 21.5165 23.3075 21.5964C23.3451 21.6836 23.3898 21.7877 23.413 22.0153C23.4306 22.1887 23.4395 22.3407 23.4472 22.4734L23.4473 22.474C23.4603 22.6983 23.4702 22.8674 23.5139 22.9922C23.5139 23.4877 23.4802 23.9763 23.413 24.3183C23.3707 24.3434 23.3531 24.1087 23.3256 23.7386C23.302 23.423 23.2712 23.0088 23.2113 22.5736C23.1963 22.4647 23.1813 22.3729 23.1633 22.2629L23.163 22.2611C23.1408 22.1247 23.1139 21.9602 23.0768 21.7009L23.0674 21.6354C22.97 20.9558 22.8814 20.3376 23.0768 20.27ZM19.3116 14.2327C19.2309 13.8697 19.356 13.6579 19.4232 13.5765C19.5039 13.9115 19.9167 14.477 20.3309 14.6514L20.0283 14.8957L20.2973 15.384C20.0151 15.7275 19.9361 16.0369 19.8801 16.2566C19.8587 16.3405 19.8406 16.4113 19.8158 16.4659C19.7923 16.3599 19.7687 16.2768 19.74 16.1757L19.7398 16.1751C19.7071 16.0599 19.6677 15.9212 19.6141 15.6984L19.5805 15.4192L19.4905 15.14C19.4285 14.8827 19.3942 14.6846 19.3652 14.5175L19.3651 14.517C19.347 14.4124 19.3309 14.3199 19.3116 14.2327ZM19.2216 12.0409C20.7007 12.355 21.4963 12.0991 21.6084 12.006L21.9111 11.5872C21.9111 11.5872 21.8665 11.8315 21.6648 12.1805C21.5226 12.5408 21.3029 12.5641 21.1909 12.576C21.1659 12.5787 21.1463 12.5808 21.134 12.5859C21.128 12.5884 21.1222 12.5908 21.1167 12.5933C21.1124 12.5952 21.1082 12.5972 21.1042 12.5993C21.0369 12.6342 20.5663 12.5993 20.5663 12.5993C20.5475 12.5841 20.5252 12.5657 20.5012 12.5458C20.3961 12.4587 20.2574 12.4134 20.23 12.4248C20.1495 12.4582 20.062 12.6691 20.062 12.6691C20.062 12.6691 19.6922 12.5644 19.4905 12.5295C19.2888 12.4946 19.1992 12.2387 19.2216 12.0409ZM20.1628 13.0879C20.109 13.0879 20.0732 13.0995 20.062 13.1228C20.0696 13.1267 20.0798 13.1324 20.0918 13.139L20.0932 13.1397C20.1523 13.1722 20.253 13.2275 20.2973 13.2275C20.3645 13.2275 20.5662 13.1228 20.5326 13.1228C20.5222 13.1228 20.4949 13.1124 20.4612 13.0996L20.4608 13.0995C20.4074 13.0792 20.3385 13.053 20.2973 13.053C20.2618 13.053 20.2413 13.0627 20.2219 13.0719C20.2046 13.0801 20.1882 13.0879 20.1628 13.0879ZM20.0283 13.5416C20.1068 13.5067 20.2838 13.4439 20.3645 13.4718C20.4228 13.4919 20.425 13.4888 20.4293 13.4826C20.4326 13.478 20.437 13.4718 20.4654 13.4718C20.5192 13.4718 20.6671 13.495 20.7343 13.5067C20.6111 13.53 20.2973 13.5695 20.0283 13.5416ZM20.5662 13.6044C20.4587 13.6323 20.2301 13.616 20.1628 13.6044L20.3621 13.7091L20.5662 13.6044ZM19.4569 13.402C19.5913 13.6579 19.9359 14.2327 20.4293 14.2327C20.7091 14.2327 21.053 13.9814 21.295 13.6743C21.2278 13.9535 20.7467 14.4222 20.5662 14.449C20.0055 14.5321 19.6922 14.0651 19.4569 13.402ZM20.1182 20.9074L20.1177 20.9037L20.1176 20.9031C20.056 20.4113 19.9888 19.8746 19.9503 19.5374L19.7822 21.2241L19.8831 21.3871L19.9503 20.375L20.0848 21.7709L20.2529 22.0153C20.2392 21.8737 20.1817 21.4148 20.1182 20.9074ZM22.3036 15.7682C22.2857 15.7794 22.2665 15.7914 22.2467 15.8039C22.1178 15.885 21.9596 15.9846 21.911 15.9846L22.001 16.5709C21.7545 16.9316 21.1269 17.604 20.5891 18.1065C20.6615 18.041 20.7528 17.9643 20.8552 17.8783L20.8555 17.878C21.2441 17.5516 21.7916 17.0918 22.0683 16.6058L21.9674 16.0474C22.0683 15.9846 22.2498 15.8241 22.3036 15.7682Z" fill="#7B7B7B"/>
</g>
<defs>
<filter id="filter0_i" x="0" y="0" width="27" height="41" filterUnits="userSpaceOnUse" color-interpolation-filters="sRGB">
<feFlood flood-opacity="0" result="BackgroundImageFix"/>
<feBlend mode="normal" in="SourceGraphic" in2="BackgroundImageFix" result="shape"/>
<feColorMatrix in="SourceAlpha" type="matrix" values="0 0 0 0 0 0 0 0 0 0 0 0 0 0 0 0 0 0 127 0" result="hardAlpha"/>
<feOffset dx="2" dy="3"/>
<feGaussianBlur stdDeviation="2.5"/>
<feComposite in2="hardAlpha" operator="arithmetic" k2="-1" k3="1"/>
<feColorMatrix type="matrix" values="0 0 0 0 0 0 0 0 0 0 0 0 0 0 0 0 0 0 0.15 0"/>
<feBlend mode="normal" in2="shape" result="effect1_innerShadow"/>
</filter>
</defs>
</svg>
