<svg width="594" height="182" viewBox="0 0 594 182" fill="none" xmlns="http://www.w3.org/2000/svg">
<g filter="url(#filter0_i)">
<path fill-rule="evenodd" clip-rule="evenodd" d="M550.82 9.33104L547.822 0L544.825 9.33104H535.125L542.972 15.0979L539.975 24.429L547.822 18.6621L555.669 24.429L552.672 15.0979L560.519 9.33104H550.82ZM538.314 27.9861L532.469 9.79056L526.624 27.9861H507.709L523.011 39.2315L517.167 57.4271L532.469 46.1816L547.771 57.4271L541.926 39.2315L557.229 27.9861H538.314ZM5.69544 119.191C9.56833 124.645 15.8713 127.371 24.6043 127.371C32.1223 127.371 37.3241 123.915 40.2098 117.002L41.3489 126.104H52.2841V78.75H27.2242V89.4651H37.1342V98.2216C37.1342 103.752 36.3749 107.9 34.8561 110.665C33.4132 113.43 30.7933 114.813 26.9964 114.813C23.1235 114.813 20.4656 113.507 19.0228 110.895C17.6559 108.284 16.9724 104.328 16.9724 99.0281V59.9697C16.9724 56.5131 17.1622 53.7095 17.5419 51.5588C17.9976 49.4081 18.9088 47.6415 20.2758 46.2589C21.6427 44.8763 23.731 44.185 26.5407 44.185C29.1986 44.185 31.173 44.7226 32.464 45.798C33.8309 46.8733 34.7042 48.4096 35.0839 50.4067C35.5395 52.4037 35.7673 55.0921 35.7673 58.4718V63.7718H51.8285V58.9327C51.8285 49.9458 49.8541 43.1864 45.9052 38.6546C41.9564 34.0459 35.4256 31.7416 26.3129 31.7416C16.6686 31.7416 9.87209 34.4684 5.92325 39.9219C1.97442 45.2987 0 53.3255 0 64.0022V95.3412C0 105.711 1.89848 113.661 5.69544 119.191ZM82.0819 32.7785H65.3373V126.104H82.0819V83.9347H100.877V126.104H117.735V32.7785H100.877V71.7217H82.0819V32.7785ZM157.027 127.371C147.458 127.371 140.624 124.798 136.523 119.652C132.422 114.429 130.372 106.824 130.372 96.839V61.8131C130.372 51.9045 132.422 44.4154 136.523 39.3459C140.624 34.2763 147.458 31.7416 157.027 31.7416C166.519 31.7416 173.316 34.2763 177.416 39.3459C181.517 44.4154 183.567 51.9045 183.567 61.8131V96.839C183.567 106.748 181.479 114.314 177.302 119.537C173.202 124.76 166.443 127.371 157.027 127.371ZM157.027 114.813C160.748 114.813 163.254 113.622 164.545 111.241C165.836 108.86 166.481 105.403 166.481 100.872V57.8957C166.481 53.3639 165.836 49.9458 164.545 47.6415C163.33 45.3371 160.824 44.185 157.027 44.185C153.23 44.185 150.686 45.3755 149.395 47.7567C148.104 50.061 147.458 53.4407 147.458 57.8957V100.872C147.458 105.403 148.104 108.86 149.395 111.241C150.686 113.622 153.23 114.813 157.027 114.813ZM200.48 120.228C204.657 124.99 210.922 127.371 219.275 127.371C223.832 127.371 227.856 126.411 231.349 124.491C234.843 122.494 237.539 119.767 239.437 116.311C241.411 112.854 242.399 108.898 242.399 104.443C242.399 98.7593 241.184 93.7665 238.754 89.4651C236.324 85.1637 232.944 81.1311 228.616 77.3674L217.111 67.1131C214.453 64.8087 212.517 62.658 211.302 60.6609C210.162 58.5871 209.593 56.0523 209.593 53.0566C209.593 50.5219 210.276 48.448 211.643 46.8349C213.01 45.1451 214.909 44.3002 217.339 44.3002C220.756 44.3002 223.034 45.606 224.173 48.2175C225.388 50.7523 226.11 54.5545 226.338 59.624L240.804 57.0892C240.272 49.3313 238.26 43.1864 234.767 38.6546C231.349 34.0459 225.654 31.7416 217.68 31.7416C210.238 31.7416 204.391 33.7771 200.139 37.848C195.962 41.8422 193.874 47.4878 193.874 54.7849C193.874 59.7008 194.747 63.9254 196.493 67.4587C198.316 70.992 201.012 74.2949 204.581 77.3674L216.2 87.6216C219.693 90.6941 222.237 93.5361 223.832 96.1477C225.502 98.6824 226.338 101.793 226.338 105.48C226.338 108.169 225.692 110.319 224.401 111.932C223.186 113.469 221.288 114.237 218.706 114.237C215.212 114.237 212.63 112.7 210.96 109.628C209.365 106.479 208.454 101.947 208.226 96.0325L193.76 98.9129C194.139 108.361 196.38 115.466 200.48 120.228ZM247.632 45.3371H246.857V32.7785H292.762L293.537 32.7787V45.3373H279.185V126.104H262.327L261.551 126.104V45.3373L247.632 45.3371ZM306.159 119.652C310.26 124.798 317.094 127.372 326.663 127.372C336.079 127.372 342.838 124.76 346.938 119.537C351.115 114.314 353.203 106.748 353.203 96.8392V61.8133C353.203 51.9047 351.153 44.4156 347.052 39.3461C342.952 34.2765 336.155 31.7418 326.663 31.7418C317.094 31.7418 310.26 34.2765 306.159 39.3461C302.058 44.4156 300.008 51.9047 300.008 61.8133V96.8392C300.008 106.825 302.058 114.429 306.159 119.652ZM334.181 111.241C332.89 113.622 330.384 114.813 326.663 114.813C322.866 114.813 320.322 113.622 319.031 111.241C317.74 108.86 317.094 105.404 317.094 100.872V57.896C317.094 53.4409 317.74 50.0612 319.031 47.7569C320.322 45.3758 322.866 44.1852 326.663 44.1852C330.46 44.1852 332.966 45.3373 334.181 47.6417C335.472 49.946 336.117 53.3641 336.117 57.896V100.872C336.117 105.404 335.472 108.86 334.181 111.241ZM362.37 32.7787H376.381L384.013 93.2675L393.581 33.0092H404.972L414.882 93.2675L422.4 32.7787H436.297L423.425 126.104H409.756L399.505 63.5416L389.367 126.104H375.356L362.37 32.7787ZM458.611 32.7787H446.878V126.104H461.231V70.3394L483.785 126.104H494.948V32.7787H481.051V86.0088L458.611 32.7787ZM572.894 35.8263C572.946 35.7784 572.999 35.7285 573.054 35.6769C574.112 34.6831 575.816 33.0827 578.812 33.2591C581.652 33.4262 582.521 34.6388 583.306 35.7347C583.505 36.0124 583.699 36.2827 583.918 36.5265L583.57 38.5105L583.106 42.1823L582.024 43.5051L581.829 45.512L584.693 47.8227C585.305 48.0578 585.932 48.3141 586.539 48.5621C588.041 49.1762 589.419 49.7399 590.147 49.8064C590.772 49.8636 591.335 50.6472 591.307 52.0236C591.307 54.7307 591.307 56.4579 592.003 59.2585L593.164 66.4934C593.244 67.1904 593.32 67.8128 593.39 68.3895L593.392 68.4083C593.856 72.2358 594.077 74.0578 593.976 82.3636L593.048 82.9471C593.048 85.7477 591.502 88.5483 588.522 88.5483C588.515 88.5358 588.507 88.5236 588.499 88.5116L588.499 88.5107C588.387 88.3379 588.294 88.1939 589.335 87.148L589.359 87.0835C589.575 86.5222 590.129 85.0824 589.683 84.8134C589.315 84.5913 588.898 85.5779 588.664 86.1317C588.603 86.2764 588.554 86.3915 588.522 86.4479C588.464 86.5409 588.386 86.5554 588.284 86.5742C588.044 86.6184 587.673 86.6867 587.13 87.8482C587.134 87.9593 586.933 88.0778 586.731 88.1977C586.532 88.3151 586.331 88.4339 586.318 88.5483C586.266 88.99 586.31 89.4519 586.358 89.9601C586.498 91.4249 586.674 93.2744 584.693 96.1334C584.339 97.1993 584.371 98.0787 584.401 98.9126C584.431 99.7358 584.459 100.515 584.113 101.385C584.113 101.385 584.554 104.068 584.345 105.119C584.136 106.169 584.113 109.553 584.113 109.553C583.917 109.975 583.66 110.431 583.384 110.922C582.513 112.469 581.444 114.369 581.444 116.671C581.444 117.665 581.1 118.452 580.831 119.068C580.658 119.464 580.516 119.79 580.516 120.055C580.516 120.055 580.98 122.855 582.372 122.972C583.765 123.089 584.577 125.992 582.372 126.24C580.168 126.488 579.355 126.357 579.355 126.357C579.355 126.357 578.158 126.855 577.847 126.94C576.57 127.29 575.679 126.847 574.983 125.913C575.371 123.029 575.502 122.284 575.784 120.684L575.874 120.172L575.526 119.705C575.607 117.811 576.036 113.605 576.32 110.812C576.445 109.59 576.542 108.639 576.57 108.269C575.964 106.442 576.429 104.382 576.814 102.675C577.019 101.765 577.201 100.956 577.188 100.334L576.956 99.2841C576.916 99.4596 576.767 99.6033 576.602 99.763C576.292 100.063 575.924 100.42 576.106 101.151C576.265 101.789 576.193 103.542 576.13 105.07V105.072C576.082 106.226 576.04 107.251 576.106 107.569L576.338 108.97L575.526 117.722V119.705C575.178 121.106 575.294 121.806 575.294 121.806C575.294 121.806 575.41 124.14 574.598 124.373C573.785 124.606 571.154 124.14 571.038 123.323C570.922 122.506 570.806 121.572 571.233 120.312C571.659 119.052 572.161 117.488 572.045 116.905L571 115.388C570.854 114.554 570.81 113.905 570.766 113.243C570.704 112.33 570.64 111.391 570.304 109.903C570.102 109.537 570.097 108.976 570.091 108.209C570.085 107.408 570.077 106.382 569.84 105.119C569.895 104.136 569.956 102.62 569.956 102.084C569.956 101.392 569.724 100.567 569.724 100.567C569.724 100.567 569.608 99.9826 568.448 99.6333C567.978 99.492 567.57 99.2941 567.202 99.1159C566.661 98.8538 566.209 98.6344 565.779 98.7006L565.732 98.7078C565.062 98.8095 560.975 99.4305 558.236 101.151C556.714 102.107 556.682 103.029 556.664 103.573C556.648 104.024 556.641 104.216 555.799 103.951C554.505 103.544 555.557 100.655 556.502 98.0593C557.112 96.3867 557.676 94.8355 557.54 94.1496C557.54 93.2822 557.762 91.9118 557.963 90.6744L557.963 90.6731C558.146 89.5469 558.31 88.5311 558.274 88.1049C558.478 87.5483 558.715 86.739 558.968 85.8816C559.385 84.462 559.841 82.9102 560.246 82.1536C560.515 81.6512 560.701 80.8515 560.9 79.9929C561.182 78.7777 561.491 77.4439 562.103 76.669V73.7517C562.335 73.4405 562.938 72.7715 563.495 72.5848C563.811 72.479 563.721 72.2067 563.54 71.6543C563.476 71.4609 563.402 71.2332 563.329 70.9664C563.205 70.5088 563.427 70.0744 563.588 69.7616C563.657 69.6275 563.714 69.5157 563.727 69.434C563.759 69.2459 563.84 69.0493 563.934 68.8239C563.992 68.682 564.069 68.5529 564.147 68.4214C564.405 67.9851 564.684 67.514 564.424 66.4L564.192 64.9997C564.114 65.2331 563.82 65.7699 563.263 66.05C562.964 66.2005 562.836 66.7874 562.723 67.3063C562.707 67.3823 562.691 67.4568 562.674 67.5283C562.637 67.6892 562.618 67.8357 562.599 67.9711C562.553 68.32 562.516 68.5948 562.219 68.8506C561.992 69.0458 562.018 69.1847 562.057 69.4052C562.089 69.577 562.129 69.7982 562.065 70.1342C561.919 70.9136 560.734 72.501 560.325 72.795L559.898 76.2022L559.318 76.4356C559.521 76.6985 559.485 77.2246 559.454 77.668L559.454 77.6695C559.444 77.816 559.434 77.9534 559.434 78.0693C559.434 78.2085 559.454 78.4075 559.476 78.6314C559.547 79.346 559.318 81.4293 558.468 81.4293C557.926 81.4293 557.943 80.8312 557.961 80.234C557.97 79.8957 557.98 79.5577 557.888 79.3288C557.837 79.2021 557.804 78.9848 557.774 78.7928C557.748 78.6187 557.724 78.4654 557.693 78.4194C557.461 78.0693 556.844 77.8118 556.96 79.3288C557.269 79.7956 557.647 81.1033 557.461 81.5701C557.403 81.718 557.372 81.8151 557.353 81.8764C557.333 81.9381 557.325 81.9633 557.311 81.9672C557.301 81.9702 557.287 81.9603 557.261 81.9448C557.422 82.0756 557.461 82.3582 557.461 82.6203C557.461 82.9704 557.345 83.4372 556.533 83.2038C555.721 82.9704 554.212 81.22 553.98 79.9364C553.795 78.9095 553.903 77.0191 553.98 76.4356C553.889 76.4356 553.838 76.4542 553.8 76.4681C553.725 76.4954 553.7 76.5045 553.516 76.3189C553.349 76.1505 553.772 74.3365 554.244 73.0959C554.433 72.5971 554.663 72.1102 554.873 71.6644L554.874 71.663C555.228 70.9137 555.526 70.2803 555.489 69.9008C555.373 68.7339 555.721 66.8668 556.417 66.05C556.831 65.564 556.987 64.76 557.139 63.9703C557.187 63.7268 557.233 63.4838 557.288 63.2527C557.325 63.091 557.439 62.8625 557.537 62.6639C557.608 62.52 557.672 62.3917 557.693 62.3158C557.711 62.2536 557.685 62.1341 557.656 61.9997C557.62 61.8305 557.578 61.6377 557.611 61.5053C557.9 60.3612 559.342 58.5579 560.014 57.8815C560.301 57.5935 560.241 57.4941 560.165 57.3685C560.027 57.1377 559.835 56.8187 561.639 55.0808C561.329 54.4974 561.175 53.6338 563.031 51.1133C563.07 50.2964 563.217 48.3126 563.495 48.3126C563.733 48.3126 565.359 48.0299 567.032 47.7391C567.81 47.6039 568.597 47.4669 569.26 47.3559C570.45 47.1563 571.954 46.4788 572.716 46.1359L572.857 46.0722C574.188 45.4755 574.559 44.9203 574.635 44.4618C574.563 44.2376 574.536 44.0066 574.508 43.7731C574.447 43.2532 574.383 42.7206 573.823 42.2213L573.591 40.1442C573.281 40.1053 572.569 39.7007 572.198 39.3273C571.889 39.0161 571.992 38.0564 572.095 37.3302C572.129 37.0931 572.394 36.6638 572.617 36.3033L572.617 36.302C572.735 36.111 572.841 35.9395 572.894 35.8263ZM578.472 48.9895C578.936 49.3396 579.355 49.9922 579.355 50.2723C579.355 50.5524 578.89 51.167 578.58 51.4392C578.89 52.1783 579.355 53.4697 579.355 55.0567C580.438 53.3841 582.618 49.993 581.597 46.0722C581.288 46.9668 579.935 48.4062 578.472 48.9895ZM587.362 67.7762C587.374 67.828 587.389 67.8936 587.408 67.9709C587.568 68.6493 587.942 70.2305 587.942 71.278C587.942 71.7243 588.04 71.9441 588.158 72.2113C588.288 72.503 588.442 72.8511 588.522 73.6119C588.583 74.1918 588.614 74.6999 588.64 75.1436L588.641 75.1457C588.686 75.8957 588.72 76.4613 588.87 76.8783C588.87 78.5352 588.754 80.1689 588.522 81.3126C588.376 81.3965 588.316 80.6116 588.221 79.3743C588.139 78.3187 588.033 76.934 587.826 75.4788C587.774 75.1147 587.723 74.8076 587.661 74.4399L587.66 74.4339C587.583 73.9778 587.49 73.4278 587.362 72.5606L587.329 72.3417C586.993 70.0692 586.687 68.0024 587.362 67.7762ZM574.366 47.5894C574.087 46.3758 574.519 45.6676 574.751 45.3953C575.03 46.5156 576.454 48.4062 577.884 48.9895L576.84 49.8064L577.768 51.4392C576.794 52.5878 576.521 53.6222 576.328 54.3568C576.254 54.6373 576.192 54.874 576.106 55.0567C576.025 54.7023 575.944 54.4244 575.844 54.0861L575.844 54.0844C575.731 53.6991 575.595 53.2351 575.41 52.4904L575.294 51.5568L574.983 50.6234C574.769 49.7628 574.651 49.1004 574.551 48.5416L574.55 48.54C574.488 48.1903 574.433 47.8812 574.366 47.5894ZM574.055 40.2608C579.161 41.3111 581.907 40.4553 582.294 40.1442L583.338 38.7438C583.338 38.7438 583.184 39.5607 582.488 40.7276C581.997 41.9323 581.239 42.0103 580.852 42.0501C580.766 42.059 580.698 42.0659 580.656 42.083C580.635 42.0915 580.615 42.0996 580.596 42.1079C580.581 42.1144 580.567 42.1209 580.553 42.1279C580.321 42.2446 578.696 42.1279 578.696 42.1279C578.632 42.0773 578.555 42.0155 578.472 41.9489C578.109 41.6577 577.63 41.5065 577.536 41.5445C577.258 41.6563 576.956 42.3613 576.956 42.3613C576.956 42.3613 575.679 42.0112 574.983 41.8945C574.287 41.7779 573.978 40.9221 574.055 40.2608ZM577.304 43.7616C577.118 43.7616 576.994 43.8005 576.956 43.8783C576.982 43.8915 577.017 43.9103 577.059 43.9324L577.064 43.9349C577.268 44.0435 577.615 44.2284 577.768 44.2284C578 44.2284 578.696 43.8783 578.58 43.8783C578.544 43.8783 578.45 43.8436 578.334 43.8009L578.333 43.8004C578.148 43.7325 577.91 43.6449 577.768 43.6449C577.645 43.6449 577.575 43.6775 577.508 43.7082C577.448 43.7356 577.392 43.7616 577.304 43.7616ZM576.84 45.2786C577.11 45.1619 577.722 44.9519 578 45.0453C578.201 45.1126 578.209 45.1022 578.224 45.0814C578.235 45.0661 578.25 45.0453 578.348 45.0453C578.534 45.0453 579.044 45.123 579.277 45.1619C578.851 45.2397 577.768 45.372 576.84 45.2786ZM578.696 45.4887C578.325 45.5821 577.536 45.5276 577.304 45.4887L577.992 45.8388L578.696 45.4887ZM574.867 44.8119C575.331 45.6676 576.521 47.5894 578.224 47.5894C579.189 47.5894 580.376 46.7492 581.212 45.7223C580.98 46.6558 579.319 48.2232 578.696 48.3126C576.761 48.5907 575.679 47.029 574.867 44.8119ZM577.15 69.9076L577.148 69.8952L577.148 69.8932C576.935 68.2487 576.703 66.4543 576.57 65.3267L575.99 70.9664L576.338 71.5114L576.57 68.1273L577.034 72.7949L577.615 73.6119C577.568 73.1384 577.369 71.6041 577.15 69.9076ZM584.693 52.7238C584.631 52.7612 584.565 52.8014 584.497 52.8432C584.052 53.1142 583.506 53.4471 583.338 53.4471L583.649 55.4078C582.798 56.6136 580.632 58.8619 578.775 60.5423C579.025 60.3233 579.34 60.0668 579.694 59.7792L579.695 59.7782C581.036 58.6869 582.926 57.1494 583.881 55.5243L583.533 53.6574C583.881 53.4471 584.507 52.9105 584.693 52.7238ZM3.95072 140.321V181.709H11.9037V167.835H19.7415L28.0979 181.709H37.0306L27.6945 166.145C29.9613 165.173 31.7478 163.599 33.0541 161.423C34.3988 159.208 35.0712 156.759 35.0712 154.078C35.0712 152.407 34.7446 150.755 34.0914 149.123C33.4383 147.452 32.5354 145.975 31.3828 144.693C30.2302 143.372 28.8471 142.322 27.2334 141.545C25.6582 140.729 23.9293 140.321 22.0467 140.321H3.95072ZM21.8738 160.782H11.9037V147.374H21.528C22.2196 147.374 22.8919 147.549 23.5451 147.899C24.2366 148.21 24.8322 148.676 25.3316 149.298C25.8695 149.881 26.2921 150.581 26.5995 151.397C26.9068 152.213 27.0605 153.106 27.0605 154.078C27.0605 155.011 26.9261 155.885 26.6571 156.701C26.3882 157.517 26.0232 158.236 25.5621 158.858C25.1011 159.441 24.544 159.907 23.8909 160.257C23.2761 160.607 22.6038 160.782 21.8738 160.782ZM51.5557 180.251C54.0146 181.417 56.7425 182 59.7392 182C62.6208 182 65.291 181.437 67.7499 180.31C70.2088 179.144 72.3219 177.609 74.0892 175.704C75.8566 173.761 77.2397 171.546 78.2386 169.059C79.2375 166.533 79.737 163.891 79.737 161.131C79.737 158.528 79.2568 155.963 78.2962 153.437C77.3357 150.911 75.991 148.657 74.2621 146.675C72.5332 144.693 70.4393 143.1 67.9804 141.895C65.5599 140.651 62.8705 140.03 59.9121 140.03C57.0306 140.03 54.3604 140.613 51.9015 141.778C49.4426 142.905 47.3103 144.44 45.5045 146.383C43.7372 148.327 42.3348 150.561 41.2975 153.087C40.2986 155.613 39.7991 158.256 39.7991 161.015C39.7991 163.657 40.2794 166.242 41.2399 168.768C42.2004 171.294 43.5451 173.548 45.274 175.53C47.0413 177.473 49.1352 179.047 51.5557 180.251ZM48.6742 166.203C48.1363 164.532 47.8674 162.802 47.8674 161.015C47.8674 159.305 48.1171 157.634 48.6166 156.002C49.1544 154.331 49.9229 152.854 50.9218 151.571C51.9207 150.25 53.1694 149.201 54.6678 148.424C56.1662 147.608 57.8759 147.2 59.7969 147.2C61.6411 147.2 63.2931 147.588 64.7531 148.365C66.2515 149.104 67.5001 150.114 68.4991 151.397C69.5364 152.679 70.324 154.156 70.8619 155.827C71.4382 157.498 71.7264 159.227 71.7264 161.015C71.7264 162.725 71.4574 164.415 70.9196 166.086C70.4201 167.718 69.6517 169.195 68.6143 170.516C67.6154 171.838 66.3667 172.906 64.8684 173.722C63.4084 174.5 61.7179 174.888 59.7969 174.888C57.9143 174.888 56.2238 174.5 54.7254 173.722C53.2654 172.945 52.0168 171.915 50.9794 170.633C49.9805 169.351 49.2121 167.874 48.6742 166.203ZM93.7907 140.321H85.8377V181.709H114.653V174.655H93.7907V140.321ZM147.905 181.709V174.655H127.446V163.871H144.678V157.342H127.446V147.374H147.386V140.321H119.493V181.709H147.905ZM171.452 140.321H154.105V181.709H162.058V167.835H171.74C173.623 167.835 175.351 167.446 176.927 166.669C178.502 165.892 179.847 164.862 180.961 163.58C182.075 162.297 182.939 160.84 183.554 159.208C184.169 157.537 184.476 155.827 184.476 154.078C184.476 152.407 184.15 150.755 183.497 149.123C182.843 147.452 181.941 145.975 180.788 144.693C179.635 143.372 178.252 142.322 176.639 141.545C175.063 140.729 173.334 140.321 171.452 140.321ZM171.279 160.782H162.058V147.374H170.933C171.625 147.374 172.297 147.53 172.95 147.841C173.642 148.113 174.237 148.54 174.737 149.123C175.236 149.706 175.64 150.425 175.947 151.28C176.254 152.096 176.408 153.029 176.408 154.078C176.408 156.138 175.909 157.77 174.91 158.975C173.949 160.179 172.739 160.782 171.279 160.782ZM197.965 140.321H190.012V181.709H218.827V174.655H197.965V140.321ZM242.339 140.321H235.308L219.69 181.709H227.874L231.62 171.391H245.912L249.716 181.709H257.899L242.339 140.321ZM238.824 149.473L244.471 165.736H232.945L238.824 149.473ZM272.299 160.257L262.214 140.321H253.569L268.38 167.135V181.709H276.276V167.252L291.144 140.321H282.557L272.299 160.257Z" fill="#23272A"/>
</g>
<defs>
<filter id="filter0_i" x="0" y="0" width="596" height="185" filterUnits="userSpaceOnUse" color-interpolation-filters="sRGB">
<feFlood flood-opacity="0" result="BackgroundImageFix"/>
<feBlend mode="normal" in="SourceGraphic" in2="BackgroundImageFix" result="shape"/>
<feColorMatrix in="SourceAlpha" type="matrix" values="0 0 0 0 0 0 0 0 0 0 0 0 0 0 0 0 0 0 127 0" result="hardAlpha"/>
<feOffset dx="2" dy="3"/>
<feGaussianBlur stdDeviation="4"/>
<feComposite in2="hardAlpha" operator="arithmetic" k2="-1" k3="1"/>
<feColorMatrix type="matrix" values="0 0 0 0 0 0 0 0 0 0 0 0 0 0 0 0 0 0 0.15 0"/>
<feBlend mode="normal" in2="shape" result="effect1_innerShadow"/>
</filter>
</defs>
</svg>
