<svg width="105" height="32" viewBox="0 0 105 32" fill="none" xmlns="http://www.w3.org/2000/svg">
<path fill-rule="evenodd" clip-rule="evenodd" d="M3.27728 0H24.6996C26.506 0 27.9769 1.48462 27.9929 3.30811V32L24.5397 28.9824L22.6053 27.1911L20.559 25.2869L21.4063 28.2401H3.27728C1.47076 28.2401 0 26.7554 0 24.9319V3.30811C0 1.48462 1.47076 0 3.27728 0ZM17.4735 21.6066C17.9531 22.2037 18.5287 22.8976 18.5287 22.8976C21.8761 22.7906 23.2574 20.6991 23.3933 20.4932C23.4009 20.4818 23.4046 20.4771 23.4046 20.4771C23.4046 15.3293 21.1025 11.1498 21.1025 11.1498C18.8164 9.4231 16.6262 9.4715 16.6262 9.4715L16.4024 9.72968C19.1202 10.5527 20.3831 11.763 20.3831 11.763C18.7205 10.8593 17.0898 10.4075 15.5711 10.23C14.42 10.1008 13.317 10.1331 12.3418 10.2622C12.2458 10.2622 12.166 10.2784 12.07 10.2945C11.5105 10.3591 10.1516 10.5527 8.44104 11.3112C7.84949 11.5693 7.4978 11.763 7.4978 11.763C7.4978 11.763 8.80872 10.4882 11.6863 9.66516L11.5265 9.4715C11.5265 9.4715 9.35223 9.4231 7.05017 11.1498C7.05017 11.1498 4.74805 15.3293 4.74805 20.4771C4.74805 20.4771 6.09094 22.8008 9.62402 22.9138C9.62402 22.9138 9.78064 22.7258 9.99799 22.4598C10.2031 22.2088 10.4623 21.8882 10.6951 21.5905C8.66486 20.9773 7.89746 19.7025 7.89746 19.7025C7.89746 19.7025 8.05731 19.8154 8.34509 19.9768C8.35437 19.9768 8.36365 19.9823 8.3761 19.9901C8.38507 19.9956 8.39569 20.0023 8.40906 20.0091C8.45703 20.0414 8.50494 20.0575 8.55292 20.0898C8.95258 20.3157 9.35223 20.4932 9.71997 20.6384C10.3754 20.9128 11.1588 21.1548 12.07 21.3323C13.269 21.5582 14.6758 21.6389 16.2106 21.3484C16.962 21.2032 17.7293 20.9935 18.5287 20.6545C19.0882 20.4448 19.7117 20.1382 20.3671 19.7025C20.3671 19.7025 19.5678 21.0096 17.4735 21.6066ZM14.7733 17C14.7733 15.8909 15.485 15 16.3867 15C17.2724 15 18 15.8909 18 17C18 18.1091 17.2882 19 16.3867 19C15.5009 19 14.7733 18.1091 14.7733 17ZM9 17C9 15.8909 9.71179 15 10.6133 15C11.515 15 12.2426 15.8909 12.2267 17C12.2267 18.1091 11.515 19 10.6133 19C9.7276 19 9 18.1091 9 17Z" fill="url(#paint0_linear)"/>
<path d="M37.4671 0.170675H33.0134V5.06779L35.9781 7.68048V2.92779H37.561C38.5671 2.92779 39.0634 3.40049 39.0634 4.16193V7.79869C39.0634 8.56021 38.5939 9.07221 37.561 9.07221H33V11.8424H37.4537C39.8415 11.8556 42.0818 10.6871 42.0818 8.00876V4.09627C42.0951 1.36545 39.8548 0.170675 37.4671 0.170675Z" fill="#23272A"/>
<path d="M60.8086 8.00876V3.99124C60.8086 2.54703 63.4647 2.21883 64.2695 3.66304L66.7244 2.69153C65.7585 0.617093 64.0012 0.0131554 62.5391 0.0131554C60.1512 0.0131554 57.7903 1.36545 57.7903 3.99124V8.00876C57.7903 10.6608 60.1512 11.9869 62.4854 11.9869C63.9878 11.9869 65.7853 11.2648 66.7781 9.37421L64.1488 8.19255C63.5049 9.80745 60.8086 9.41359 60.8086 8.00876Z" fill="#23272A"/>
<path d="M52.6927 4.54269C51.7671 4.34572 51.15 4.01752 51.1097 3.45297C51.1634 2.1007 53.2964 2.04814 54.5439 3.34793L56.5159 1.86435C55.2817 0.393885 53.8866 0 52.4512 0C50.2646 0 48.1452 1.20786 48.1452 3.49235C48.1452 5.71117 49.889 6.90594 51.8073 7.19476C52.7866 7.32607 53.8732 7.70675 53.8463 8.36324C53.7658 9.61048 51.1366 9.54482 49.9427 8.12697L48.0378 9.87311C49.1512 11.2779 50.6671 11.9869 52.089 11.9869C54.2756 11.9869 56.7037 10.7528 56.7975 8.49455C56.9317 5.64552 54.8122 4.92345 52.6927 4.54269Z" fill="#23272A"/>
<path d="M43.7048 11.8293H46.7098V0.170675H43.7048V11.8293Z" fill="#23272A"/>
<path d="M94.3723 0.170675H89.9183V5.06779L92.8829 7.68048V2.92779H94.4655C95.4716 2.92779 95.9683 3.40049 95.9683 4.16193V7.79869C95.9683 8.56021 95.4984 9.07221 94.4655 9.07221H89.9049V11.8424H94.3723C96.7596 11.8556 99 10.6871 99 8.00876V4.09627C99 1.36545 96.7596 0.170675 94.3723 0.170675Z" fill="#23272A"/>
<path fill-rule="evenodd" clip-rule="evenodd" d="M67.5964 4.01752C67.5964 1.32607 70.0512 0.0131554 72.5195 0.0131554C74.9878 0.0131554 77.4695 1.33917 77.4695 4.01752V7.99566C77.4695 10.6608 75.0146 12 72.5463 12C70.0646 12 67.5964 10.6608 67.5964 7.99566V4.01752ZM74.4512 7.99566C74.4512 8.83594 73.4853 9.26918 72.5329 9.26918C71.5671 9.26918 70.6012 8.86214 70.6012 7.99566V4.01752C70.6012 3.16414 71.5403 2.70463 72.4793 2.70463C73.4585 2.70463 74.4512 3.11158 74.4512 4.01752V7.99566Z" fill="#23272A"/>
<path fill-rule="evenodd" clip-rule="evenodd" d="M83.828 0.183831C86.2833 0.183831 88.1881 1.2867 88.2552 4.01752C88.2552 6.17069 87.3557 7.39173 85.9208 7.83807L89.1673 11.8424H85.411L82.6475 8.14007H82.111V11.8424H79.0659V0.183831H83.828ZM83.8817 5.59304H82.111V2.92779H83.8817C85.7731 2.92779 85.7731 5.59304 83.8817 5.59304Z" fill="#23272A"/>
<path d="M37.9294 18.8H35.3294L34.8334 20H33.5054L36.0014 14.4H37.2814L39.7854 20H38.4254L37.9294 18.8ZM37.5214 17.816L36.6334 15.672L35.7454 17.816H37.5214ZM44.408 17.08C44.7494 17.1813 45.0107 17.3467 45.192 17.576C45.3734 17.8053 45.464 18.088 45.464 18.424C45.464 18.92 45.2747 19.3067 44.896 19.584C44.5227 19.8613 43.9867 20 43.288 20H40.528V14.4H43.136C43.7867 14.4 44.2934 14.5253 44.656 14.776C45.0187 15.0267 45.2 15.384 45.2 15.848C45.2 16.1253 45.1307 16.3707 44.992 16.584C44.8534 16.792 44.6587 16.9573 44.408 17.08ZM41.816 16.72H43.024C43.3067 16.72 43.52 16.664 43.664 16.552C43.808 16.4347 43.88 16.264 43.88 16.04C43.88 15.8213 43.8054 15.6533 43.656 15.536C43.512 15.4187 43.3014 15.36 43.024 15.36H41.816V16.72ZM43.24 19.04C43.848 19.04 44.152 18.8 44.152 18.32C44.152 17.856 43.848 17.624 43.24 17.624H41.816V19.04H43.24ZM50.6908 15.456H48.8988V20H47.6188V15.456H45.8348V14.4H50.6908V15.456ZM54.0985 20.096C53.5171 20.096 52.9918 19.9707 52.5225 19.72C52.0585 19.4693 51.6931 19.1253 51.4265 18.688C51.1651 18.2453 51.0345 17.7493 51.0345 17.2C51.0345 16.6507 51.1651 16.1573 51.4265 15.72C51.6931 15.2773 52.0585 14.9307 52.5225 14.68C52.9918 14.4293 53.5171 14.304 54.0985 14.304C54.6798 14.304 55.2025 14.4293 55.6665 14.68C56.1305 14.9307 56.4958 15.2773 56.7625 15.72C57.0291 16.1573 57.1625 16.6507 57.1625 17.2C57.1625 17.7493 57.0291 18.2453 56.7625 18.688C56.4958 19.1253 56.1305 19.4693 55.6665 19.72C55.2025 19.9707 54.6798 20.096 54.0985 20.096ZM54.0985 18.992C54.4291 18.992 54.7278 18.9173 54.9945 18.768C55.2611 18.6133 55.4691 18.4 55.6185 18.128C55.7731 17.856 55.8505 17.5467 55.8505 17.2C55.8505 16.8533 55.7731 16.544 55.6185 16.272C55.4691 16 55.2611 15.7893 54.9945 15.64C54.7278 15.4853 54.4291 15.408 54.0985 15.408C53.7678 15.408 53.4691 15.4853 53.2025 15.64C52.9358 15.7893 52.7251 16 52.5705 16.272C52.4211 16.544 52.3465 16.8533 52.3465 17.2C52.3465 17.5467 52.4211 17.856 52.5705 18.128C52.7251 18.4 52.9358 18.6133 53.2025 18.768C53.4691 18.9173 53.7678 18.992 54.0985 18.992ZM60.5848 14.4C61.0808 14.4 61.5102 14.4827 61.8728 14.648C62.2408 14.8133 62.5235 15.048 62.7208 15.352C62.9182 15.656 63.0168 16.016 63.0168 16.432C63.0168 16.8427 62.9182 17.2027 62.7208 17.512C62.5235 17.816 62.2408 18.0507 61.8728 18.216C61.5102 18.376 61.0808 18.456 60.5848 18.456H59.4568V20H58.1608V14.4H60.5848ZM60.5128 17.4C60.9022 17.4 61.1982 17.3173 61.4008 17.152C61.6035 16.9813 61.7048 16.7413 61.7048 16.432C61.7048 16.1173 61.6035 15.8773 61.4008 15.712C61.1982 15.5413 60.9022 15.456 60.5128 15.456H59.4568V17.4H60.5128ZM63.8718 14.4H65.1598V18.048L67.8318 14.4H69.0478V20H67.7678V16.36L65.0958 20H63.8718V14.4ZM73.6261 17.08C73.9514 17.192 74.2048 17.368 74.3861 17.608C74.5728 17.8427 74.6661 18.1173 74.6661 18.432C74.6661 18.7733 74.5541 19.0693 74.3301 19.32C74.1061 19.5707 73.8021 19.7627 73.4181 19.896C73.0394 20.0293 72.6234 20.096 72.1701 20.096C71.7861 20.096 71.4021 20.048 71.0181 19.952C70.6394 19.856 70.2794 19.7093 69.9381 19.512L70.3381 18.584C70.5834 18.7333 70.8528 18.848 71.1461 18.928C71.4448 19.0027 71.7354 19.04 72.0181 19.04C72.4021 19.04 72.7194 18.9707 72.9701 18.832C73.2261 18.6933 73.3541 18.4987 73.3541 18.248C73.3541 18.04 73.2661 17.8827 73.0901 17.776C72.9194 17.6693 72.6848 17.616 72.3861 17.616H71.0181V16.64H72.2901C72.5514 16.64 72.7541 16.5867 72.8981 16.48C73.0474 16.3733 73.1221 16.2267 73.1221 16.04C73.1221 15.8213 73.0154 15.6507 72.8021 15.528C72.5941 15.4053 72.3248 15.344 71.9941 15.344C71.7488 15.344 71.4954 15.3787 71.2341 15.448C70.9728 15.512 70.7248 15.6107 70.4901 15.744L70.0981 14.736C70.6901 14.432 71.3301 14.28 72.0181 14.28C72.4554 14.28 72.8581 14.344 73.2261 14.472C73.5941 14.6 73.8874 14.7867 74.1061 15.032C74.3248 15.2773 74.4341 15.5627 74.4341 15.888C74.4341 16.1547 74.3621 16.392 74.2181 16.6C74.0741 16.808 73.8768 16.968 73.6261 17.08ZM79.4841 18.8H76.8841L76.3881 20H75.0601L77.5561 14.4H78.8361L81.3401 20H79.9801L79.4841 18.8ZM79.0761 17.816L78.1881 15.672L77.3001 17.816H79.0761ZM87.9547 18.944V21.184H86.7627V20H82.0827V14.4H83.3707V18.944H85.8667V14.4H87.1547V18.944H87.9547ZM88.8093 14.4H90.0973V18.048L92.7693 14.4H93.9853V20H92.7053V16.36L90.0333 20H88.8093V14.4ZM99.8516 14.4V20H98.5716V18.512H97.3876L96.3956 20H95.0276L96.1956 18.312C95.8169 18.1573 95.5263 17.9253 95.3236 17.616C95.1209 17.3013 95.0196 16.9253 95.0196 16.488C95.0196 16.056 95.1183 15.6853 95.3156 15.376C95.5129 15.0613 95.7929 14.8213 96.1556 14.656C96.5183 14.4853 96.9449 14.4 97.4356 14.4H99.8516ZM97.4676 15.456C97.0996 15.456 96.8169 15.5413 96.6196 15.712C96.4276 15.8827 96.3316 16.136 96.3316 16.472C96.3316 16.7973 96.4249 17.048 96.6116 17.224C96.7983 17.4 97.0729 17.488 97.4356 17.488H98.5716V15.456H97.4676Z" fill="#23272A"/>
<path d="M38.093 28.01H35.607L35.222 29H32.802L35.618 22.598H38.104L40.92 29H38.467L38.093 28.01ZM37.444 26.316L36.861 24.809L36.267 26.316H37.444ZM41.3066 22.598H43.8366V27.13H46.6196V29H41.3066V22.598ZM51.8967 28.01H49.4107L49.0257 29H46.6057L49.4217 22.598H51.9077L54.7237 29H52.2707L51.8967 28.01ZM51.2477 26.316L50.6647 24.809L50.0707 26.316H51.2477ZM60.6213 25.645C60.9807 25.7917 61.2557 26.0007 61.4463 26.272C61.6443 26.536 61.7433 26.8513 61.7433 27.218C61.7433 27.7827 61.4977 28.2227 61.0063 28.538C60.5223 28.846 59.8257 29 58.9163 29H55.1103V22.598H58.7403C59.635 22.598 60.3097 22.752 60.7643 23.06C61.219 23.368 61.4463 23.775 61.4463 24.281C61.4463 24.567 61.3767 24.8273 61.2373 25.062C61.098 25.2967 60.8927 25.491 60.6213 25.645ZM57.5963 24.27V25.018H58.3993C58.744 25.018 58.9163 24.897 58.9163 24.655C58.9163 24.3983 58.744 24.27 58.3993 24.27H57.5963ZM58.7183 27.328C58.8723 27.328 58.9933 27.295 59.0813 27.229C59.1693 27.1557 59.2133 27.0567 59.2133 26.932C59.2133 26.8073 59.1693 26.712 59.0813 26.646C59.0007 26.5727 58.8797 26.536 58.7183 26.536H57.5963V27.328H58.7183ZM67.0325 28.01H64.5465L64.1615 29H61.7415L64.5575 22.598H67.0435L69.8595 29H67.4065L67.0325 28.01ZM66.3835 26.316L65.8005 24.809L65.2065 26.316H66.3835ZM75.9991 29L75.9771 26.503L74.8221 28.417H73.7001L72.5451 26.613V29H70.2461V22.598H72.3251L74.2941 25.722L76.1971 22.598H78.2761L78.2981 29H75.9991ZM83.9729 28.01H81.4869L81.1019 29H78.6819L81.4979 22.598H83.9839L86.7999 29H84.3469L83.9729 28.01ZM83.3239 26.316L82.7409 24.809L82.1469 26.316H83.3239ZM93.2234 27.482H93.0144V29H90.4844V22.598H93.7734C94.382 22.598 94.9137 22.7007 95.3684 22.906C95.8304 23.104 96.186 23.39 96.4354 23.764C96.6847 24.1307 96.8094 24.5633 96.8094 25.062C96.8094 25.5167 96.7067 25.9163 96.5014 26.261C96.296 26.5983 96.0027 26.8697 95.6214 27.075L96.9524 29H94.2574L93.2234 27.482ZM94.2794 25.062C94.2794 24.8787 94.2207 24.732 94.1034 24.622C93.986 24.512 93.81 24.457 93.5754 24.457H93.0144V25.667H93.5754C93.81 25.667 93.986 25.612 94.1034 25.502C94.2207 25.392 94.2794 25.2453 94.2794 25.062ZM101.046 22.598C101.654 22.598 102.186 22.7007 102.641 22.906C103.103 23.104 103.458 23.39 103.708 23.764C103.957 24.1307 104.082 24.5633 104.082 25.062C104.082 25.5607 103.957 25.997 103.708 26.371C103.458 26.7377 103.103 27.02 102.641 27.218C102.186 27.416 101.654 27.515 101.046 27.515H100.287V29H97.7568V22.598H101.046ZM100.848 25.667C101.082 25.667 101.258 25.612 101.376 25.502C101.493 25.392 101.552 25.2453 101.552 25.062C101.552 24.8787 101.493 24.732 101.376 24.622C101.258 24.512 101.082 24.457 100.848 24.457H100.287V25.667H100.848Z" fill="#23272A"/>
<path d="M5.15302 5.66087H4.33403V7H3V2H5.21212C5.88195 2 6.41388 2.16522 6.80789 2.49565C7.20191 2.82029 7.39892 3.26957 7.39892 3.84348C7.39892 4.2087 7.31167 4.52754 7.13718 4.8C6.96831 5.06667 6.72628 5.27536 6.41106 5.42609L7.49179 7H6.05645L5.15302 5.66087ZM6.05645 3.84348C6.05645 3.5942 5.97764 3.4029 5.82004 3.26957C5.66243 3.13623 5.42883 3.06957 5.11925 3.06957H4.33403V4.61739H5.11925C5.42883 4.61739 5.66243 4.55072 5.82004 4.41739C5.97764 4.28406 6.05645 4.09275 6.05645 3.84348Z" fill="white"/>
<path d="M12.3429 5.94783V7H8.43367V2H12.25V3.05217H9.75082V3.96522H11.9629V4.96522H9.75082V5.94783H12.3429Z" fill="white"/>
<path d="M13.3149 2H15.603C16.1546 2 16.6387 2.10145 17.0553 2.30435C17.4718 2.50725 17.7926 2.7971 18.0178 3.17391C18.2486 3.55072 18.364 3.9942 18.364 4.50435C18.364 5.0087 18.2486 5.44928 18.0178 5.82609C17.7926 6.2029 17.4718 6.49275 17.0553 6.69565C16.6387 6.89855 16.1546 7 15.603 7H13.3149V2ZM15.5608 5.92174C16.0111 5.92174 16.3657 5.8 16.6247 5.55652C16.8836 5.30725 17.013 4.95652 17.013 4.50435C17.013 4.05217 16.8836 3.70145 16.6247 3.45217C16.3657 3.2029 16.0111 3.07826 15.5608 3.07826H14.6489V5.92174H15.5608Z" fill="white"/>
<path d="M23.7504 7L23.742 4.26957L22.4417 6.46957H21.8422L20.5504 4.35652V7H19.3093V2H20.4238L22.1631 4.90435L23.8602 2H24.9831L25 7H23.7504Z" fill="white"/>
<defs>
<linearGradient id="paint0_linear" x1="-3.5" y1="-5.65045e-08" x2="30" y2="31" gradientUnits="userSpaceOnUse">
<stop stop-color="#990505"/>
<stop offset="0.505208" stop-color="#23272A"/>
</linearGradient>
</defs>
</svg>
