<svg width="199" height="38" viewBox="0 0 199 38" fill="none" xmlns="http://www.w3.org/2000/svg">
    <path fill-rule="evenodd" clip-rule="evenodd"
          d="M0.691136 22.6666C2.68827 29.2271 8.78673 34 16.0001 34C24.8365 34 32.0001 26.8364 32.0001 18C32.0001 9.16347 24.8365 2 16.0001 2C7.52064 2 0.582407 8.59626 0.0344238 16.937C0.0367134 16.9408 0.0389998 16.9447 0.0412832 16.9485C0.0413133 16.948 0.0413374 16.9476 0.0413554 16.9473L0.0413937 16.9466L8.63868 20.4858C8.87257 20.332 9.12184 20.1988 9.38787 20.0903C9.99133 19.8417 10.6278 19.7305 11.262 19.7593L15.1773 14.0718C15.1759 14.0466 15.1759 14.0196 15.1759 13.9927C15.1759 10.6362 17.9021 7.90558 21.2531 7.90558C24.6056 7.90558 27.3304 10.6362 27.3304 13.9927C27.3304 17.349 24.6056 20.0821 21.2531 20.0821C21.2078 20.0821 21.1611 20.0807 21.1158 20.0793L15.5137 24.0827C15.5302 24.7008 15.4162 25.3202 15.1718 25.9107C14.2324 28.17 11.6286 29.2453 9.37029 28.3018C7.99003 27.7264 7.05448 26.5301 6.74931 25.1664L0.691136 22.6666ZM9.75978 27.3652C11.5034 28.0917 13.5094 27.2635 14.2365 25.5179C14.5881 24.6747 14.5894 23.7408 14.242 22.8948C13.8945 22.0488 13.2389 21.3868 12.3938 21.0352C11.5556 20.6864 10.6585 20.6973 9.86938 20.9967L11.9145 21.8441C13.1997 22.3797 13.808 23.8575 13.2718 25.1444C12.7373 26.4299 11.262 27.0397 9.97609 26.504L7.99772 25.6841C8.34807 26.4161 8.95539 27.03 9.75978 27.3652ZM17.2044 13.9927C17.2044 16.2297 19.0214 18.0494 21.2531 18.0494C23.4863 18.0494 25.3033 16.2297 25.3033 13.9927C25.3033 11.7575 23.4863 9.93724 21.2531 9.93724C19.0214 9.93724 17.2044 11.7575 17.2044 13.9927ZM21.26 10.9389C19.5817 10.9389 18.2193 12.3037 18.2193 13.9865C18.2193 15.6695 19.5817 17.0331 21.26 17.0331C22.9397 17.0331 24.3021 15.6695 24.3021 13.9865C24.3021 12.3037 22.9397 10.9389 21.26 10.9389Z"
          fill="#23272A"/>
    <path d="M45.946 12.568C45.862 12.484 45.706 12.37 45.478 12.226C45.262 12.082 44.992 11.944 44.668 11.812C44.356 11.668 44.014 11.548 43.642 11.452C43.27 11.356 42.892 11.308 42.508 11.308C41.824 11.308 41.314 11.434 40.978 11.686C40.642 11.938 40.474 12.292 40.474 12.748C40.474 13.012 40.534 13.234 40.654 13.414C40.786 13.582 40.972 13.732 41.212 13.864C41.452 13.996 41.752 14.116 42.112 14.224C42.484 14.332 42.91 14.446 43.39 14.566C44.014 14.734 44.578 14.914 45.082 15.106C45.598 15.298 46.03 15.538 46.378 15.826C46.738 16.114 47.014 16.462 47.206 16.87C47.398 17.266 47.494 17.758 47.494 18.346C47.494 19.03 47.362 19.618 47.098 20.11C46.846 20.59 46.498 20.98 46.054 21.28C45.622 21.58 45.118 21.802 44.542 21.946C43.978 22.078 43.384 22.144 42.76 22.144C41.8 22.144 40.852 22 39.916 21.712C38.98 21.424 38.14 21.016 37.396 20.488L38.494 18.346C38.602 18.454 38.794 18.598 39.07 18.778C39.358 18.946 39.694 19.12 40.078 19.3C40.462 19.468 40.888 19.612 41.356 19.732C41.824 19.852 42.304 19.912 42.796 19.912C44.164 19.912 44.848 19.474 44.848 18.598C44.848 18.322 44.77 18.088 44.614 17.896C44.458 17.704 44.236 17.536 43.948 17.392C43.66 17.248 43.312 17.116 42.904 16.996C42.496 16.876 42.04 16.744 41.536 16.6C40.924 16.432 40.39 16.252 39.934 16.06C39.49 15.856 39.118 15.622 38.818 15.358C38.518 15.082 38.29 14.77 38.134 14.422C37.99 14.062 37.918 13.636 37.918 13.144C37.918 12.496 38.038 11.92 38.278 11.416C38.518 10.912 38.848 10.492 39.268 10.156C39.7 9.82 40.198 9.568 40.762 9.4C41.326 9.22 41.932 9.13 42.58 9.13C43.48 9.13 44.308 9.274 45.064 9.562C45.82 9.838 46.48 10.168 47.044 10.552L45.946 12.568ZM58.8412 11.398H54.7552V22H52.2892V11.398H48.2032V9.22H58.8412V11.398ZM69.3017 19.822V22H60.4277V9.22H69.1397V11.398H62.9117V14.476H68.2937V16.492H62.9117V19.822H69.3017ZM74.8743 9.22H77.0703L81.9303 22H79.3743L78.1863 18.814H73.7223L72.5522 22H69.9963L74.8743 9.22ZM77.7363 17.068L75.9723 12.046L74.1363 17.068H77.7363ZM93.754 22V13.54L90.46 19.84H89.11L85.816 13.54V22H83.332V9.22H85.996L89.776 16.492L93.592 9.22H96.238V22H93.754Z"
          fill="#23272A"/>
    <path d="M39.208 23.32H40.184L42.344 29H41.208L40.68 27.584H38.696L38.176 29H37.04L39.208 23.32ZM40.48 26.808L39.696 24.576L38.88 26.808H40.48ZM47.479 27.536C47.479 27.776 47.431 27.9867 47.335 28.168C47.239 28.3493 47.1057 28.5013 46.935 28.624C46.7697 28.7467 46.575 28.84 46.351 28.904C46.1323 28.968 45.8977 29 45.647 29H42.903V23.32H45.943C46.1403 23.32 46.319 23.3627 46.479 23.448C46.639 23.5333 46.775 23.6453 46.887 23.784C46.999 23.9173 47.0843 24.072 47.143 24.248C47.207 24.4187 47.239 24.592 47.239 24.768C47.239 25.0453 47.1697 25.3067 47.031 25.552C46.8923 25.792 46.6897 25.9707 46.423 26.088C46.7483 26.184 47.0043 26.3573 47.191 26.608C47.383 26.8533 47.479 27.1627 47.479 27.536ZM46.367 27.328C46.367 27.2267 46.3483 27.1307 46.311 27.04C46.279 26.944 46.2337 26.8613 46.175 26.792C46.1163 26.7227 46.047 26.6693 45.967 26.632C45.887 26.5893 45.799 26.568 45.703 26.568H44.007V28.064H45.647C45.7483 28.064 45.8417 28.0453 45.927 28.008C46.0177 27.9707 46.095 27.92 46.159 27.856C46.223 27.7867 46.2737 27.7067 46.311 27.616C46.3483 27.5253 46.367 27.4293 46.367 27.328ZM44.007 24.264V25.696H45.479C45.6657 25.696 45.823 25.632 45.951 25.504C46.0843 25.376 46.151 25.2 46.151 24.976C46.151 24.7573 46.0897 24.584 45.967 24.456C45.8497 24.328 45.703 24.264 45.527 24.264H44.007ZM52.4963 24.288H50.6803V29H49.5843V24.288H47.7683V23.32H52.4963V24.288ZM55.3678 29.04C54.9518 29.04 54.5731 28.96 54.2318 28.8C53.8958 28.6347 53.6051 28.4187 53.3598 28.152C53.1198 27.88 52.9331 27.5707 52.7998 27.224C52.6664 26.8773 52.5998 26.5227 52.5998 26.16C52.5998 25.7813 52.6691 25.4187 52.8078 25.072C52.9518 24.7253 53.1464 24.4187 53.3918 24.152C53.6424 23.8853 53.9384 23.6747 54.2798 23.52C54.6211 23.36 54.9918 23.28 55.3918 23.28C55.8024 23.28 56.1758 23.3653 56.5118 23.536C56.8531 23.7013 57.1438 23.92 57.3838 24.192C57.6238 24.464 57.8104 24.7733 57.9438 25.12C58.0771 25.4667 58.1438 25.8187 58.1438 26.176C58.1438 26.5547 58.0744 26.9173 57.9358 27.264C57.7971 27.6053 57.6051 27.9093 57.3598 28.176C57.1144 28.4373 56.8211 28.648 56.4798 28.808C56.1384 28.9627 55.7678 29.04 55.3678 29.04ZM53.7198 26.16C53.7198 26.4053 53.7571 26.6427 53.8318 26.872C53.9064 27.1013 54.0131 27.304 54.1518 27.48C54.2958 27.656 54.4691 27.7973 54.6718 27.904C54.8798 28.0107 55.1144 28.064 55.3758 28.064C55.6424 28.064 55.8771 28.0107 56.0798 27.904C56.2878 27.792 56.4611 27.6453 56.5998 27.464C56.7438 27.2827 56.8504 27.08 56.9198 26.856C56.9944 26.6267 57.0318 26.3947 57.0318 26.16C57.0318 25.9147 56.9918 25.6773 56.9118 25.448C56.8371 25.2187 56.7278 25.016 56.5838 24.84C56.4451 24.664 56.2718 24.5253 56.0638 24.424C55.8611 24.3173 55.6318 24.264 55.3758 24.264C55.1091 24.264 54.8718 24.32 54.6638 24.432C54.4558 24.5387 54.2824 24.6827 54.1438 24.864C54.0051 25.04 53.8984 25.2427 53.8238 25.472C53.7544 25.696 53.7198 25.9253 53.7198 26.16ZM59.0066 29V23.32H61.4146C61.676 23.32 61.916 23.376 62.1346 23.488C62.3586 23.5947 62.5506 23.7387 62.7106 23.92C62.8706 24.096 62.996 24.2987 63.0866 24.528C63.1773 24.752 63.2226 24.9787 63.2226 25.208C63.2226 25.448 63.18 25.6827 63.0946 25.912C63.0093 26.136 62.8893 26.336 62.7346 26.512C62.58 26.688 62.3933 26.8293 62.1746 26.936C61.956 27.0427 61.716 27.096 61.4546 27.096H60.1106V29H59.0066ZM60.1106 26.128H61.3906C61.5933 26.128 61.7613 26.0453 61.8946 25.88C62.0333 25.7147 62.1026 25.4907 62.1026 25.208C62.1026 25.064 62.0813 24.936 62.0386 24.824C61.996 24.7067 61.94 24.608 61.8706 24.528C61.8013 24.448 61.7186 24.3893 61.6226 24.352C61.532 24.3093 61.4386 24.288 61.3426 24.288H60.1106V26.128ZM65.1104 27.304L68.0064 23.32H68.8464V29H67.7504V25.104L64.8944 29H64.0144V23.32H65.1104V27.304ZM69.7249 24.048C69.9543 23.792 70.2183 23.6 70.5169 23.472C70.8156 23.3387 71.1729 23.272 71.5889 23.272C72.1329 23.272 72.5623 23.392 72.8769 23.632C73.1969 23.872 73.3569 24.224 73.3569 24.688C73.3569 24.976 73.2849 25.2373 73.1409 25.472C73.0023 25.7013 72.7809 25.864 72.4769 25.96C72.8289 26.0293 73.1009 26.1867 73.2929 26.432C73.4849 26.672 73.5809 26.9707 73.5809 27.328C73.5809 27.5947 73.5276 27.8347 73.4209 28.048C73.3196 28.256 73.1783 28.4347 72.9969 28.584C72.8156 28.728 72.5969 28.84 72.3409 28.92C72.0903 29 71.8183 29.04 71.5249 29.04C71.1143 29.04 70.7516 28.9733 70.4369 28.84C70.1223 28.7013 69.8423 28.496 69.5969 28.224L70.2369 27.456C70.3969 27.6427 70.5756 27.7893 70.7729 27.896C70.9756 28.0027 71.2183 28.056 71.5009 28.056C71.7836 28.056 72.0156 27.9813 72.1969 27.832C72.3783 27.6827 72.4689 27.4747 72.4689 27.208C72.4689 26.9627 72.3729 26.76 72.1809 26.6C71.9943 26.44 71.7089 26.36 71.3249 26.36H70.7329V25.544H71.2609C71.6023 25.544 71.8636 25.4827 72.0449 25.36C72.2263 25.232 72.3169 25.0533 72.3169 24.824C72.3169 24.6213 72.2476 24.4667 72.1089 24.36C71.9756 24.2533 71.7836 24.2 71.5329 24.2C71.2823 24.2 71.0583 24.248 70.8609 24.344C70.6689 24.4347 70.4983 24.5653 70.3489 24.736L69.7249 24.048ZM75.9424 23.32H76.9184L79.0784 29H77.9424L77.4144 27.584H75.4304L74.9104 29H73.7744L75.9424 23.32ZM77.2144 26.808L76.4304 24.576L75.6144 26.808H77.2144ZM83.9494 29H79.7334V23.32H80.8294V28.032H83.0454V23.32H84.1414V28.032H84.9894V30.416H83.9494V29ZM86.8448 27.304L89.7408 23.32H90.5808V29H89.4848V25.104L86.6288 29H85.7488V23.32H86.8448V27.304ZM94.7633 29V26.896H93.8593L92.5793 29H91.3633L92.7553 26.76C92.43 26.6267 92.1686 26.4133 91.9713 26.12C91.774 25.8267 91.6753 25.488 91.6753 25.104C91.6753 24.864 91.7206 24.6373 91.8113 24.424C91.902 24.2107 92.0273 24.0213 92.1873 23.856C92.3473 23.6907 92.5366 23.56 92.7553 23.464C92.9793 23.368 93.222 23.32 93.4833 23.32H95.8593V29H94.7633ZM94.7633 24.264H93.6033C93.4966 24.264 93.3953 24.2853 93.2993 24.328C93.2033 24.3653 93.1153 24.4213 93.0353 24.496C92.9606 24.5653 92.8993 24.6533 92.8513 24.76C92.8086 24.8613 92.7873 24.976 92.7873 25.104C92.7873 25.36 92.862 25.5653 93.0113 25.72C93.166 25.8747 93.3553 25.952 93.5793 25.952H94.7633V24.264Z"
          fill="#23272A"/>
    <defs>
        <filter id="filter0_i" x="106.576" y="7.08801" width="90.8485" height="25.168" filterUnits="userSpaceOnUse"
                color-interpolation-filters="sRGB">
            <feFlood flood-opacity="0" result="BackgroundImageFix"/>
            <feBlend mode="normal" in="SourceGraphic" in2="BackgroundImageFix" result="shape"/>
            <feColorMatrix in="SourceAlpha" type="matrix" values="0 0 0 0 0 0 0 0 0 0 0 0 0 0 0 0 0 0 127 0"
                           result="hardAlpha"/>
            <feOffset dx="1" dy="2"/>
            <feGaussianBlur stdDeviation="2.5"/>
            <feComposite in2="hardAlpha" operator="arithmetic" k2="-1" k3="1"/>
            <feColorMatrix type="matrix" values="0 0 0 0 0 0 0 0 0 0 0 0 0 0 0 0 0 0 0.15 0"/>
            <feBlend mode="normal" in2="shape" result="effect1_innerShadow"/>
        </filter>
        <filter id="filter1_i" x="101" y="2" width="2" height="32" filterUnits="userSpaceOnUse"
                color-interpolation-filters="sRGB">
            <feFlood flood-opacity="0" result="BackgroundImageFix"/>
            <feBlend mode="normal" in="SourceGraphic" in2="BackgroundImageFix" result="shape"/>
            <feColorMatrix in="SourceAlpha" type="matrix" values="0 0 0 0 0 0 0 0 0 0 0 0 0 0 0 0 0 0 127 0"
                           result="hardAlpha"/>
            <feOffset/>
            <feGaussianBlur stdDeviation="1"/>
            <feComposite in2="hardAlpha" operator="arithmetic" k2="-1" k3="1"/>
            <feColorMatrix type="matrix" values="0 0 0 0 0 0 0 0 0 0 0 0 0 0 0 0 0 0 0.15 0"/>
            <feBlend mode="normal" in2="shape" result="effect1_innerShadow"/>
        </filter>
    </defs>
</svg>
